<?xml version="1.0" encoding="UTF-8"?>
<svg xmlns="http://www.w3.org/2000/svg" width="142" height="35" viewBox="0 0 142 35" fill="none">
  <path d="M55.8813 12.5649H60.3466V26.6006H55.8813V12.5649Z" fill="#CC1F27"></path>
  <path d="M61.2788 12.5649H65.5796V14.4838H65.6617C66.7027 12.976 68.045 12.1537 69.99 12.1537C73.058 12.1537 74.866 14.3468 74.866 17.4719V26.6006H70.4009V18.3766C70.4009 16.8962 69.6613 15.8818 68.2094 15.8818C66.7302 15.8818 65.7439 17.1155 65.7439 18.8425V26.6006H61.2788V12.5649Z" fill="#CC1F27"></path>
  <path d="M60.7915 8.80999C60.7915 7.32957 59.5922 6.1296 58.113 6.1296C56.6338 6.1296 55.4346 7.32957 55.4346 8.80999C55.4346 10.2903 56.6338 11.4902 58.113 11.4902C59.5922 11.4902 60.7915 10.2903 60.7915 8.80999Z" fill="#CC1F27"></path>
  <path d="M106.271 12.3623C106.144 12.3508 105.998 12.3457 105.827 12.3457C104.128 12.3457 102.978 13.0858 101.992 14.758H101.91V12.565H97.6362V26.6006H102.101V20.2956C102.101 17.3741 103.718 16.0204 106.271 16.2566V12.3623Z" fill="#CC1F27"></path>
  <path d="M128.182 17.7468C126.401 17.4179 124.812 17.2809 124.812 16.294C124.812 15.4167 125.661 15.0055 126.757 15.0055C127.99 15.0055 128.839 15.3893 129.003 16.6504H133.113C132.893 13.8816 130.757 12.1545 126.785 12.1545C123.47 12.1545 120.731 13.6897 120.731 16.6504C120.731 19.9398 123.333 20.5978 125.771 21.0091C127.634 21.3381 129.332 21.4751 129.332 22.7361C129.332 23.6408 128.483 24.1342 127.141 24.1342C125.794 24.1342 124.903 23.5641 124.63 22.4072H120.375C120.689 25.2926 123.219 27.04 127.168 27.04C130.839 27.04 133.551 25.4501 133.551 22.3799C133.551 18.7885 130.647 18.1581 128.182 17.7468Z" fill="#CC1F27"></path>
  <path d="M113.198 15.334C114.65 15.334 115.691 16.4031 115.856 18.0755H110.322C110.623 16.4031 111.5 15.334 113.198 15.334ZM113.445 23.8046C111.609 23.8046 110.569 22.626 110.295 20.7344H120.376C120.403 17.8835 119.581 15.4436 117.91 13.9086C116.705 12.8121 115.116 12.1541 113.116 12.1541C108.843 12.1541 105.912 15.3613 105.912 19.5557C105.912 23.8046 108.761 27.0122 113.39 27.0122C115.17 27.0122 116.595 26.5462 117.773 25.7237C119.006 24.8739 119.828 23.6677 120.129 22.4068H115.773C115.39 23.284 114.623 23.8046 113.445 23.8046Z" fill="#CC1F27"></path>
  <path d="M141.413 23.291C141.206 23.2991 140.928 23.3111 140.673 23.3111C139.714 23.3111 139.111 23.0369 139.111 21.9404V15.3611H141.413V12.565H139.111V8.12399H134.756V12.565H133.385V15.3611H134.756V22.8999C134.756 25.9155 136.619 26.7651 139.221 26.7651C140.214 26.7651 140.964 26.6907 141.413 26.6032V23.291Z" fill="#CC1F27"></path>
  <path d="M82.8378 23.2983C82.6597 23.3052 82.454 23.3121 82.262 23.3121C81.3033 23.3121 80.7005 23.0379 80.7005 21.9414V15.3621H82.8378V12.566H80.7005V8.12497H76.345V12.566H74.8926V15.3621H76.345V22.9008C76.345 25.9164 78.2077 26.7661 80.8101 26.7661C81.6907 26.7661 82.3801 26.7075 82.8378 26.6332V23.2983Z" fill="#CC1F27"></path>
  <path d="M92.5674 18.0755C92.4031 16.4032 91.362 15.334 89.9101 15.334C88.2118 15.334 87.3352 16.4032 87.0338 18.0755H92.5674ZM82.6235 19.5558C82.6235 15.3615 85.5546 12.1542 89.828 12.1542C91.8277 12.1542 93.4166 12.8121 94.6219 13.9086C96.293 15.4438 97.1146 17.8835 97.0873 20.7346H87.0066C87.2803 22.626 88.3213 23.8048 90.1568 23.8048C91.3346 23.8048 92.1017 23.284 92.4851 22.4068H96.8407C96.5393 23.6677 95.7177 24.8739 94.4848 25.7239C93.307 26.5462 91.8825 27.0122 90.1019 27.0122C85.4724 27.0122 82.6235 23.8048 82.6235 19.5558Z" fill="#CC1F27"></path>
  <path d="M48.1276 16.2109C49.8808 16.2109 50.8669 15.1692 50.8669 13.6065C50.8669 12.0441 49.8533 11.0846 48.1276 11.0846H44.7032V16.2109H48.1276ZM40.1826 6.99997H47.9366C50.3197 6.99997 52.0729 7.65783 53.2783 8.80925C54.5384 9.98792 55.2507 11.6603 55.2507 13.634C55.2507 17.3896 52.6482 20.0488 48.6213 20.0488H44.7032V26.6006H40.1826V6.99997Z" fill="#CC1F27"></path>
  <path d="M34.0541 17.3897C34.0541 26.707 26.5063 34.2603 17.1957 34.2603C7.88518 34.2603 0.337402 26.707 0.337402 17.3897C0.337402 8.07221 7.88518 0.519089 17.1957 0.519089C26.5063 0.519089 34.0541 8.07221 34.0541 17.3897Z" fill="#F7F7FB"></path>
  <path d="M17.1952 0.5186C7.88469 0.5186 0.336914 8.07186 0.336914 17.3892C0.336914 24.5364 4.78048 30.6463 11.0516 33.1045C10.9043 31.7697 10.7711 29.7169 11.1101 28.2597C11.4165 26.943 13.0869 19.8739 13.0869 19.8739C13.0869 19.8739 12.5827 18.8632 12.5827 17.3691C12.5827 15.0233 13.9414 13.2719 15.6331 13.2719C17.0714 13.2719 17.7661 14.3526 17.7661 15.6484C17.7661 17.0959 16.8452 19.26 16.37 21.2655C15.9728 22.9447 17.2114 24.314 18.8664 24.314C21.8627 24.314 24.1659 21.1524 24.1659 16.5886C24.1659 12.5492 21.2656 9.72501 17.1241 9.72501C12.3273 9.72501 9.51177 13.3255 9.51177 17.0464C9.51177 18.4964 10.0699 20.0512 10.7664 20.8964C10.9042 21.0635 10.9244 21.2098 10.8833 21.3803C10.7554 21.9131 10.471 23.059 10.4151 23.2936C10.3416 23.6024 10.1708 23.6679 9.85131 23.5191C7.74581 22.5384 6.42939 19.4578 6.42939 16.9834C6.42939 11.6617 10.2932 6.77426 17.5684 6.77426C23.4165 6.77426 27.9612 10.9446 27.9612 16.5179C27.9612 22.3322 24.2979 27.0114 19.2133 27.0114C17.5049 27.0114 15.899 26.1233 15.3493 25.0742C15.3493 25.0742 14.504 28.2953 14.299 29.0847C13.9184 30.5501 12.891 32.3869 12.2037 33.5075C13.7811 33.9962 15.4573 34.2598 17.1952 34.2598C26.5059 34.2598 34.0537 26.7065 34.0537 17.3892C34.0537 8.07186 26.5059 0.5186 17.1952 0.5186Z" fill="#CC1F27"></path>
</svg>
