<?xml version="1.0" encoding="UTF-8"?>
<svg xmlns="http://www.w3.org/2000/svg" width="107" height="24" viewBox="0 0 107 24" fill="none">
  <path d="M17.7989 23.8374L10.8109 23.708C8.54826 23.663 6.28008 23.753 4.06194 23.2861C0.687468 22.5884 0.448419 19.1677 0.198253 16.2983C-0.146421 12.2644 -0.0129992 8.15725 0.637434 4.15703C1.00435 1.91218 2.44975 0.573147 4.68457 0.426867C12.2285 -0.101995 19.8224 -0.0401068 27.3497 0.207445C28.1446 0.22995 28.9452 0.353726 29.729 0.494381C33.5983 1.18078 33.6928 5.05722 33.943 8.32041C34.1931 11.6174 34.0875 14.9312 33.6094 18.2056C33.2258 20.9174 32.492 23.1904 29.3955 23.4098C25.5151 23.6968 21.7237 23.9275 17.8322 23.8543C17.8322 23.8374 17.81 23.8374 17.7989 23.8374ZM13.6906 16.9735C16.6147 15.2744 19.4833 13.6034 22.3908 11.9155C19.4611 10.2164 16.5981 8.54545 13.6906 6.8576V16.9735Z" fill="#A0A3BD"></path>
  <path d="M89.9936 20.7543C89.8602 21.3057 89.7434 21.7389 89.6267 22.2002H86.8915V0.848633H90.0825V8.72537C90.2493 8.51158 90.3327 8.42156 90.405 8.32591C90.9498 7.56637 91.6558 7.07126 92.5675 6.87997C94.0185 6.59303 95.2582 7.24004 95.6974 8.65223C95.9809 9.52993 96.1643 10.4695 96.1866 11.3866C96.2311 13.744 96.1977 16.0957 96.1143 18.4531C96.081 19.1733 95.8641 19.9103 95.5917 20.5855C94.6967 22.8135 91.7725 23.1511 90.3216 21.2213C90.2326 21.1031 90.1492 20.9737 89.9936 20.7543ZM90.1492 14.8805V18.7851C90.1492 19.4209 90.4828 19.8091 91.111 19.9554C91.7281 20.1016 92.2284 19.8597 92.4786 19.2802C92.5842 19.0383 92.6898 18.7851 92.6954 18.5319C92.7565 16.1464 92.8121 13.7609 92.8288 11.3697C92.8288 10.9252 92.7232 10.4639 92.5897 10.0307C92.3396 9.24861 91.6502 9.01794 90.972 9.47366C90.4606 9.82249 90.1492 10.3176 90.1492 10.9759V14.8805ZM81.4768 7.18378H84.8179V22.2115H82.2106C82.1161 21.6432 82.0216 21.0581 81.9104 20.3717C81.7325 20.6361 81.6269 20.8049 81.5157 20.9737C80.6485 22.2396 79.4199 22.6728 77.9689 22.4422C76.7292 22.2396 75.9843 21.2719 75.8175 19.6853C75.7675 19.2127 75.7452 18.7345 75.7452 18.2619C75.7341 14.7455 75.7452 11.2178 75.7452 7.7014V7.17253H79.1253V7.78579C79.1253 11.184 79.1141 14.5767 79.1364 17.9749C79.1364 18.4588 79.1864 18.9595 79.2698 19.4434C79.3643 19.9385 79.7201 20.1185 80.1982 20.0848C80.9709 20.0229 81.5046 19.4434 81.5046 18.6669V7.84768C81.4768 7.62826 81.4768 7.42571 81.4768 7.18378ZM58.4727 7.17253H61.8304V7.80829C61.8304 11.1897 61.8193 14.5654 61.8416 17.9355C61.8416 18.4194 61.886 18.9201 61.9861 19.3927C62.114 19.9497 62.4364 20.1298 62.9868 20.0566C63.7484 19.9497 64.2098 19.4152 64.2153 18.6332V7.87018V7.19503H67.5565V22.2115H64.9603C64.8658 21.6545 64.7713 21.0806 64.649 20.3548C64.4822 20.608 64.3877 20.7543 64.2932 20.9062C63.4259 22.1946 62.2085 22.6672 60.7241 22.4365C59.5345 22.2565 58.8062 21.3675 58.5838 19.9103C58.5227 19.4546 58.4782 19.0045 58.4782 18.5488C58.4671 14.8974 58.4671 11.2291 58.4671 7.57762L58.4727 7.17253ZM56.7493 15.1956C56.7382 15.7019 56.7048 16.2083 56.677 16.7146C56.5491 18.2337 56.488 20.3886 55.2761 21.4969C54.5033 22.1946 53.5249 22.4478 52.5131 22.4815C52.0628 22.4928 51.607 22.4928 51.1567 22.4309C49.0275 22.1046 48.0379 21.1537 47.6822 18.7851C47.2763 16.0507 47.243 13.2714 47.7266 10.537C48.227 7.70702 49.9503 6.70555 52.6299 6.89122C55.1315 7.07126 56.2489 8.731 56.5436 11.094C56.7048 12.4499 56.7826 13.8227 56.7493 15.1956ZM53.347 14.6779C53.347 13.7158 53.3693 12.7481 53.3359 11.786C53.3137 11.2291 53.2414 10.6664 53.1247 10.1151C52.9912 9.47929 52.591 9.17547 52.0906 9.18672C51.6014 9.19798 51.2567 9.50179 51.0788 10.0925C51.0177 10.312 50.951 10.537 50.951 10.7564C50.951 12.2643 50.9399 13.7777 50.9287 15.2856C50.9176 16.6921 50.7397 18.1662 51.1789 19.5109C51.3123 19.9216 51.657 20.1466 52.1073 20.1466C52.5465 20.1466 52.8356 19.9272 52.9968 19.5334C53.1247 19.2296 53.2358 18.8976 53.2358 18.5713C53.2748 17.2773 53.347 15.9776 53.347 14.6779ZM42.7789 11.8479C43.0735 10.3907 43.3515 8.9673 43.6573 7.53824C44.0408 5.72096 44.4689 3.90368 44.8469 2.08078C44.9414 1.63631 45.1193 1.52941 45.5363 1.54066C46.4313 1.57442 47.343 1.55191 48.2992 1.55191C47.9879 2.71092 47.6821 3.81366 47.382 4.89953C46.4313 8.30903 45.4807 11.7298 44.5412 15.1505C44.4689 15.415 44.4355 15.7019 44.4355 15.9832C44.4244 17.8511 44.4355 19.7134 44.4355 21.5813V22.189H41.1723C41.1612 22.0202 41.1389 21.8514 41.1389 21.6826C41.1389 20.6249 41.0555 19.5615 41.15 18.515C41.3891 16.0001 40.5997 13.6877 39.9604 11.3472C39.1153 8.25277 38.2592 5.14708 37.4142 2.05265C37.3697 1.90637 37.3531 1.74883 37.3086 1.56879H40.6386C41.339 4.98392 42.0451 8.39905 42.7789 11.8479ZM106.627 15.7694H101.001C101.062 16.9116 101.084 17.9974 101.201 19.072C101.284 19.8203 101.69 20.141 102.33 20.1466C102.997 20.1579 103.386 19.8203 103.541 19.0777C103.591 18.8357 103.625 18.5938 103.647 18.3462C103.669 18.1268 103.68 17.8905 103.697 17.5755C104.648 17.6261 105.576 17.6824 106.493 17.7217C107.027 19.3252 106.065 21.3844 104.448 22.0202C103.175 22.5265 101.868 22.5265 100.567 22.1383C99.6055 21.8514 98.8884 21.2325 98.5659 20.2817C98.2657 19.3927 97.9822 18.4644 97.9211 17.5361C97.7543 15.2462 97.6931 12.9338 98.0378 10.6383C98.099 10.2557 98.2046 9.89001 98.3213 9.51867C98.7883 7.98834 99.8056 7.04875 101.379 6.89122C102.235 6.80682 103.119 6.84058 103.964 6.98686C105.332 7.22879 106.06 8.22464 106.377 9.52993C106.521 10.1432 106.627 10.7733 106.649 11.3978C106.655 12.8325 106.627 14.256 106.627 15.7694ZM103.43 13.7946C103.43 12.6637 103.441 11.6004 103.419 10.5314C103.419 10.2782 103.325 10.0138 103.23 9.77185C103.041 9.29925 102.646 9.16985 102.174 9.16985C101.701 9.16985 101.401 9.41177 101.284 9.845C100.929 11.1447 101.045 12.4725 101.056 13.8059C101.907 13.7946 102.68 13.7946 103.43 13.7946Z" fill="#A0A3BD"></path>
  <path d="M70.1359 4.30902H66.8281V1.59717H76.7013V4.29214H73.4158V22.1892H70.1414L70.1359 4.30902Z" fill="#A0A3BD"></path>
</svg>
