<?xml version="1.0" encoding="UTF-8"?>
<svg xmlns="http://www.w3.org/2000/svg" width="116" height="24" viewBox="0 0 116 24" fill="none">
  <path d="M7.49878 22.9382H3.13488V11.9285H0.162109V8.34397H3.13476V5.79331C3.13476 2.77077 4.44958 0.603027 8.80166 0.603027C9.72214 0.603027 11.1672 0.790793 11.1672 0.790793V4.11924H9.64941C8.10286 4.11924 7.49901 4.59534 7.49901 5.91157V8.34397H11.1093L10.7878 11.9285H7.4989L7.49878 22.9382ZM17.5119 8.05752C17.4483 8.05752 17.3828 8.05986 17.3181 8.0615C13.2716 8.0615 11.4203 11.1419 11.4203 15.5147C11.4203 21.0232 13.8218 23.2279 17.3497 23.2279C19.3682 23.2279 20.6944 22.368 21.5004 20.7635V22.9398H25.6511V8.34549H21.5004V10.5899C20.8423 9.1459 19.479 8.07463 17.5119 8.05752ZM18.5673 11.5061C20.2668 11.5061 21.2869 12.7058 21.2869 14.7465L21.2908 16.8308C21.2908 18.2062 20.4483 19.8154 18.5673 19.8154C15.6754 19.8154 15.7527 16.6552 15.7527 15.6027C15.7527 12.0622 17.2934 11.5061 18.5673 11.5061ZM27.3274 15.6434C27.3274 13.8699 27.2435 8.06701 34.7138 8.06701C37.7126 8.06701 38.9647 9.03198 38.9647 9.03198L37.9583 12.1911C37.9583 12.1911 36.7078 11.4941 35.0783 11.4941C32.9913 11.4941 31.6595 12.7186 31.6595 14.873L31.6619 16.4178C31.6619 18.4879 32.9468 19.8698 35.0826 19.8698C36.5671 19.8698 37.9353 19.1663 37.9353 19.1663L38.9391 22.2594C38.9391 22.2594 37.7942 23.2304 34.7348 23.2304C27.6219 23.2304 27.3275 18.0241 27.3275 15.6434H27.3274ZM63.3017 8.0615C67.3483 8.0615 69.2289 11.1419 69.2289 15.5147C69.2289 21.0232 66.8273 23.2279 63.2993 23.2279C61.2808 23.2279 59.7887 22.3682 58.9827 20.7635V22.9398L54.8842 22.9381V1.04677L59.2357 0.662686V10.3922C59.8638 8.68997 61.9277 8.0615 63.3019 8.0615H63.3017ZM62.0818 11.5061C60.3822 11.5061 59.2357 12.7058 59.2357 14.7465L59.2317 16.8308C59.2291 18.2062 60.0257 19.8154 62.0818 19.8154C64.9736 19.8154 64.8963 16.6552 64.8963 15.6027C64.8963 12.0622 63.3557 11.5061 62.0818 11.5061ZM46.5149 8.07357C41.9253 8.07357 39.5023 10.6061 39.5023 15.1066V15.9427C39.5023 21.784 42.905 23.2879 46.9616 23.2879C50.9047 23.2879 52.6894 22.1717 52.6894 22.1717L51.8752 19.1993C51.8752 19.1993 49.7757 20.1034 47.4834 20.1034C45.1069 20.1034 44.0849 19.4904 43.8229 17.179H53.0373V14.7945C53.0373 9.91255 50.318 8.07346 46.5148 8.07346L46.5149 8.07357ZM46.6255 11.0499C48.2142 11.0499 49.2437 12.0359 49.1872 14.3225H43.8309C43.9238 11.9159 45.0339 11.05 46.6255 11.05V11.0499ZM77.9056 8.05353C73.1924 8.05353 70.7111 10.7416 70.7111 15.5587C70.7111 22.168 74.9883 23.2318 77.9135 23.2318C82.1957 23.2318 85.0447 20.8986 85.0447 15.6187C85.0447 10.1232 81.8413 8.05353 77.9056 8.05353ZM77.8463 11.5181C79.9188 11.5181 80.74 13.0878 80.74 14.8746V16.4109C80.74 18.5754 79.5909 19.8275 77.8384 19.8275C76.1995 19.8275 75.0476 18.6563 75.0476 16.4109V14.8746C75.0476 12.4799 76.4182 11.5181 77.8463 11.5181ZM93.7137 8.05353C89.0005 8.05353 86.5192 10.7416 86.5192 15.5587C86.5192 22.168 90.7964 23.2318 93.7215 23.2318C98.0037 23.2318 100.853 20.8986 100.853 15.6187C100.853 10.1232 97.6493 8.05353 93.7137 8.05353ZM93.6544 11.5181C95.7268 11.5181 96.5479 13.0878 96.5479 14.8746V16.4109C96.5479 18.5754 95.3988 19.8275 93.6465 19.8275C92.0075 19.8275 90.8557 18.6563 90.8557 16.4109V14.8746C90.8557 12.4799 92.2263 11.5181 93.6544 11.5181ZM102.497 22.9382V1.04677L106.861 0.662686V15.3357L111.191 8.34397H115.8L111.283 15.5854L115.974 22.9382H111.352L106.861 15.7987V22.9382H102.497Z" fill="#A0A3BD"></path>
</svg>
