<?xml version="1.0" encoding="UTF-8"?>
<svg xmlns="http://www.w3.org/2000/svg" width="96" height="32" viewBox="0 0 96 32" fill="none">
  <path d="M12.1606 0.317383H13.002C15.923 0.381648 18.7964 1.57056 20.8601 3.67525C20.0981 4.4625 19.3203 5.21762 18.5741 6.00488C17.4152 4.9445 16.0182 4.12511 14.4942 3.83592C12.24 3.35393 9.81108 3.78772 7.92194 5.08909C5.85818 6.45473 4.46117 8.76829 4.15955 11.2425C3.82617 13.6846 4.5088 16.2552 6.08043 18.151C7.58856 19.9987 9.89045 21.1555 12.2717 21.2358C14.4942 21.3643 16.812 20.6735 18.4313 19.099C19.7013 17.9904 20.2886 16.3034 20.4791 14.6646C17.8439 14.6646 15.2086 14.6807 12.5733 14.6646V11.355H23.67C24.2415 14.9056 23.416 18.9062 20.749 21.4446C18.971 23.2441 16.5104 24.3045 14.0021 24.5133C11.5732 24.7543 9.06495 24.2884 6.90594 23.0995C4.3183 21.7017 2.25453 19.34 1.23853 16.5605C0.286023 14.0059 0.270148 11.114 1.15915 8.54336C1.96878 6.19767 3.52454 4.12511 5.5248 2.67914C7.44569 1.24923 9.77933 0.46198 12.1606 0.317383Z" fill="#A0A3BD"></path>
  <path d="M75.8203 1.15332H79.2176V24.096C78.0904 24.096 76.9474 24.1121 75.8203 24.08C75.8362 16.4485 75.8203 8.80089 75.8203 1.15332Z" fill="#A0A3BD"></path>
  <path d="M31.2262 9.1059C33.3217 8.70424 35.5918 9.1541 37.3222 10.4233C38.8938 11.548 39.9892 13.3153 40.3226 15.2432C40.7512 17.4764 40.2115 19.9185 38.7827 21.6858C37.2428 23.6619 34.7187 24.7223 32.2581 24.5616C30.0038 24.4331 27.813 23.2924 26.4795 21.4287C24.9714 19.3722 24.6063 16.5446 25.4318 14.1346C26.2573 11.548 28.5909 9.57182 31.2262 9.1059ZM31.7024 12.1585C30.8452 12.3834 30.0514 12.8815 29.4799 13.5884C27.94 15.4521 28.0353 18.4886 29.7339 20.2237C30.7023 21.2198 32.1628 21.6858 33.5122 21.4126C34.7663 21.1877 35.8617 20.3362 36.465 19.2116C37.5127 17.2997 37.2111 14.6648 35.6077 13.1707C34.5758 12.2067 33.0677 11.805 31.7024 12.1585Z" fill="#A0A3BD"></path>
  <path d="M48.0527 9.10562C50.4499 8.63969 53.0693 9.31448 54.8631 11.0175C57.7842 13.6685 58.1017 18.633 55.6093 21.6856C54.1011 23.6136 51.6564 24.674 49.2434 24.5615C46.9415 24.4972 44.6713 23.3404 43.3061 21.4285C41.7662 19.3238 41.4328 16.4319 42.3059 13.9737C43.1791 11.4674 45.4651 9.55548 48.0527 9.10562ZM48.529 12.1582C47.6717 12.3832 46.878 12.8812 46.3065 13.5721C44.7825 15.4036 44.846 18.392 46.4811 20.1432C47.4495 21.1875 48.9576 21.7017 50.3546 21.4125C51.5929 21.1715 52.7041 20.336 53.3074 19.2114C54.3393 17.2834 54.0376 14.6485 52.4184 13.1543C51.3865 12.1904 49.8784 11.8048 48.529 12.1582Z" fill="#A0A3BD"></path>
  <path d="M62.3259 10.0375C64.1516 8.8807 66.5805 8.55937 68.549 9.55549C69.1681 9.82861 69.6761 10.2945 70.1682 10.7605C70.1841 10.3267 70.1682 9.87681 70.1841 9.42695C71.2477 9.44302 72.3114 9.42695 73.3909 9.44302V23.6135C73.375 25.7503 72.8352 28.0157 71.3112 29.5741C69.6443 31.2932 67.0885 31.8234 64.7866 31.47C62.3259 31.1004 60.1828 29.2849 59.2303 26.9875C60.1828 26.5215 61.1829 26.152 62.1672 25.7182C62.7228 27.0357 63.8499 28.1603 65.2628 28.4174C66.6757 28.6744 68.3108 28.321 69.2316 27.1321C70.2159 25.911 70.2158 24.2401 70.1682 22.7459C69.438 23.4689 68.5966 24.1116 67.5806 24.3526C65.3739 24.9792 62.945 24.208 61.2464 22.6977C59.5319 21.1875 58.5159 18.8579 58.6111 16.5443C58.6588 13.9255 60.1193 11.4031 62.3259 10.0375ZM65.6121 12.094C64.6437 12.2546 63.7388 12.8009 63.1197 13.556C61.6274 15.3554 61.6274 18.2313 63.1355 19.9986C63.9928 21.0429 65.3739 21.6213 66.7074 21.4767C67.9616 21.3482 69.1205 20.5449 69.7396 19.4363C70.7874 17.5565 70.6127 15.002 69.1998 13.3632C68.3267 12.351 66.9297 11.853 65.6121 12.094Z" fill="#A0A3BD"></path>
  <path d="M83.2947 10.8566C85.1997 9.0572 88.1366 8.44668 90.5814 9.3946C92.8991 10.2782 94.3755 12.5115 95.1216 14.809C91.6767 16.2549 88.2477 17.6848 84.8028 19.1308C85.2791 20.0466 86.0093 20.882 86.9936 21.2194C88.3747 21.7175 90.0257 21.5408 91.1846 20.6089C91.645 20.2554 92.0101 19.7895 92.3594 19.3397C93.2325 19.9341 94.1056 20.5125 94.9788 21.107C93.7405 22.9867 91.6609 24.3042 89.4225 24.513C86.946 24.8183 84.3107 23.8543 82.7073 21.8942C80.072 18.8095 80.326 13.6361 83.2947 10.8566ZM84.9933 13.8289C84.4536 14.6162 84.2313 15.5801 84.2472 16.5281C86.5491 15.5641 88.851 14.6001 91.1529 13.62C90.7719 12.7203 89.8511 12.1741 88.9145 12.0295C87.4063 11.7564 85.8347 12.5757 84.9933 13.8289Z" fill="#A0A3BD"></path>
</svg>
