<?xml version="1.0" encoding="UTF-8"?>
<svg xmlns="http://www.w3.org/2000/svg" width="114" height="39" viewBox="0 0 114 39" fill="none">
  <path d="M48.6803 20.3729C48.6803 25.7622 44.4673 29.7335 39.2969 29.7335C34.1266 29.7335 29.9136 25.7622 29.9136 20.3729C29.9136 14.9455 34.1266 11.0122 39.2969 11.0122C44.4673 11.0122 48.6803 14.9455 48.6803 20.3729ZM44.5727 20.3729C44.5727 17.005 42.1309 14.7008 39.2969 14.7008C36.463 14.7008 34.0212 17.005 34.0212 20.3729C34.0212 23.7069 36.463 26.045 39.2969 26.045C42.1309 26.045 44.5727 23.7027 44.5727 20.3729Z" fill="#EA4335"></path>
  <path d="M68.923 20.3729C68.923 25.7622 64.71 29.7335 59.5396 29.7335C54.3693 29.7335 50.1562 25.7622 50.1562 20.3729C50.1562 14.9498 54.3693 11.0122 59.5396 11.0122C64.71 11.0122 68.923 14.9455 68.923 20.3729ZM64.8154 20.3729C64.8154 17.005 62.3736 14.7008 59.5396 14.7008C56.7056 14.7008 54.2639 17.005 54.2639 20.3729C54.2639 23.7069 56.7056 26.045 59.5396 26.045C62.3736 26.045 64.8154 23.7027 64.8154 20.3729Z" fill="#FBBC05"></path>
  <path d="M88.3228 11.5777V28.383C88.3228 35.2959 84.249 38.1193 79.4329 38.1193C74.8994 38.1193 72.1708 35.0849 71.1418 32.6033L74.718 31.1136C75.3548 32.6371 76.9152 34.4349 79.4287 34.4349C82.5115 34.4349 84.4219 32.5316 84.4219 28.9485V27.6022H84.2785C83.3592 28.7375 81.5879 29.7293 79.3528 29.7293C74.6758 29.7293 70.3911 25.6525 70.3911 20.4066C70.3911 15.1228 74.6758 11.0122 79.3528 11.0122C81.5837 11.0122 83.3549 12.004 84.2785 13.1055H84.4219V11.5819H88.3228V11.5777ZM84.7129 20.4066C84.7129 17.1106 82.5157 14.7008 79.7197 14.7008C76.8857 14.7008 74.5114 17.1106 74.5114 20.4066C74.5114 23.6689 76.8857 26.045 79.7197 26.045C82.5157 26.045 84.7129 23.6689 84.7129 20.4066Z" fill="#4285F4"></path>
  <path d="M94.7539 1.72754V29.1596H90.7476V1.72754H94.7539Z" fill="#34A853"></path>
  <path d="M110.366 23.453L113.555 25.5801C112.526 27.1036 110.046 29.7286 105.761 29.7286C100.447 29.7286 96.479 25.618 96.479 20.368C96.479 14.8014 100.481 11.0073 105.301 11.0073C110.156 11.0073 112.53 14.8731 113.306 16.9622L113.732 18.0257L101.228 23.2082C102.185 25.0863 103.674 26.0443 105.761 26.0443C107.853 26.0443 109.304 25.0145 110.366 23.453ZM100.553 20.0852L108.911 16.6119C108.452 15.4429 107.069 14.6284 105.441 14.6284C103.353 14.6284 100.447 16.4726 100.553 20.0852V20.0852Z" fill="#EA4335"></path>
  <path d="M14.7479 17.9371V13.9658H28.1208C28.2516 14.6579 28.319 15.4767 28.319 16.363C28.319 19.3425 27.5051 23.0268 24.882 25.6519C22.3305 28.3107 19.0706 29.7287 14.7521 29.7287C6.74782 29.7287 0.0170898 23.2041 0.0170898 15.1939C0.0170898 7.18378 6.74782 0.65918 14.7521 0.65918C19.1803 0.65918 22.3348 2.39795 24.7049 4.66425L21.9046 7.46654C20.2051 5.87126 17.9024 4.63049 14.7479 4.63049C8.90283 4.63049 4.33133 9.34458 4.33133 15.1939C4.33133 21.0433 8.90283 25.7574 14.7479 25.7574C18.5392 25.7574 20.6985 24.2338 22.0817 22.8496C23.2035 21.727 23.9415 20.1233 24.2325 17.9329L14.7479 17.9371Z" fill="#4285F4"></path>
</svg>
