<?xml version="1.0" encoding="UTF-8"?>
<svg xmlns="http://www.w3.org/2000/svg" width="131" height="29" viewBox="0 0 131 29" fill="none">
  <path d="M52.4163 16.6065L50.1511 10.5046C50.0587 10.2551 49.7054 10.2551 49.6128 10.5046L47.3481 16.6069C47.332 16.6503 47.3266 16.6969 47.3325 16.7428C47.3383 16.7887 47.3552 16.8325 47.3817 16.8704C47.4081 16.9084 47.4433 16.9394 47.4844 16.9608C47.5254 16.9822 47.571 16.9934 47.6173 16.9934H52.147C52.1933 16.9934 52.2389 16.9822 52.2799 16.9607C52.321 16.9393 52.3562 16.9083 52.3826 16.8703C52.4091 16.8323 52.4259 16.7885 52.4317 16.7426C52.4375 16.6967 52.4322 16.6501 52.4161 16.6067L52.4163 16.6065ZM53.4626 20.0363H46.3019C46.2433 20.0363 46.1861 20.0542 46.138 20.0877C46.0899 20.1211 46.0532 20.1684 46.0328 20.2233L44.6231 24.0201C44.6027 24.075 44.566 24.1223 44.5179 24.1558C44.4698 24.1892 44.4126 24.2071 44.354 24.2071H41.2504C41.2034 24.2071 41.1572 24.1956 41.1158 24.1736C41.0744 24.1516 41.0389 24.1198 41.0127 24.081C40.9864 24.0421 40.97 23.9975 40.965 23.9508C40.96 23.9042 40.9665 23.8571 40.984 23.8136L48.1296 6.02457C48.151 5.97144 48.1878 5.92592 48.2353 5.89389C48.2828 5.86185 48.3388 5.84476 48.3961 5.84481H51.368C51.4851 5.84481 51.5905 5.91595 51.6344 6.02457L58.7798 23.8134C58.7973 23.8569 58.8039 23.9041 58.7989 23.9508C58.794 23.9974 58.7776 24.0422 58.7513 24.0811C58.725 24.12 58.6896 24.1518 58.6481 24.1738C58.6066 24.1958 58.5604 24.2073 58.5134 24.2073H55.4103C55.3517 24.2073 55.2945 24.1893 55.2464 24.1559C55.1983 24.1224 55.1616 24.075 55.1412 24.0201L53.7313 20.2233C53.7109 20.1684 53.6742 20.1211 53.6261 20.0877C53.578 20.0542 53.5208 20.0363 53.4622 20.0363H53.4626ZM60.2339 12.0878H62.8885C62.9646 12.0878 63.0376 12.1181 63.0914 12.1719C63.1453 12.2257 63.1755 12.2986 63.1755 12.3747V23.9203C63.1755 23.9963 63.1453 24.0693 63.0914 24.1231C63.0376 24.1769 62.9646 24.2071 62.8885 24.2071H60.2339C60.1578 24.2071 60.0848 24.1769 60.0309 24.1231C59.9771 24.0693 59.9469 23.9963 59.9469 23.9203V12.3745C59.9469 12.2984 59.9771 12.2255 60.0309 12.1717C60.0848 12.1179 60.1578 12.0877 60.2339 12.0877V12.0878ZM72.8568 14.8963C72.8568 14.9724 72.8266 15.0454 72.7728 15.0991C72.7189 15.1529 72.6459 15.1832 72.5698 15.1832H72.4894C71.1769 15.1832 70.2141 15.4979 69.6018 16.1275C68.9891 16.757 68.6833 17.7977 68.6833 19.2492V23.9203C68.6833 23.9963 68.653 24.0693 68.5992 24.1231C68.5454 24.1769 68.4723 24.2071 68.3962 24.2071H65.7677C65.6916 24.2071 65.6185 24.1769 65.5647 24.1231C65.5109 24.0693 65.4806 23.9963 65.4806 23.9203V12.3745C65.4806 12.2984 65.5109 12.2255 65.5647 12.1717C65.6185 12.1179 65.6916 12.0877 65.7677 12.0877H68.3698C68.4459 12.0877 68.519 12.1179 68.5728 12.1717C68.6266 12.2255 68.6569 12.2984 68.6569 12.3745V14.6582H68.7095C69.0245 13.7139 69.5231 12.9886 70.2059 12.481C70.8881 11.9741 71.7282 11.7203 72.7256 11.7203H72.8568V14.8961V14.8963ZM80.1152 14.7896C80.039 14.7896 79.966 14.8198 79.9122 14.8736C79.8584 14.9274 79.8281 15.0004 79.8281 15.0765V19.8787C79.8281 20.3685 79.9238 20.7182 80.1167 20.928C80.309 21.1378 80.6416 21.2428 81.1141 21.2428H81.3783C81.4545 21.2428 81.5275 21.273 81.5813 21.3268C81.6351 21.3806 81.6654 21.4536 81.6654 21.5297V23.9463C81.6654 24.0224 81.6351 24.0953 81.5813 24.1491C81.5275 24.2029 81.4545 24.2331 81.3783 24.2331H80.2478C79.0753 24.2331 78.1742 23.9316 77.5442 23.3282C76.9141 22.7249 76.5991 21.8289 76.5991 20.6395V15.0765C76.5991 15.0004 76.5689 14.9274 76.515 14.8736C76.4612 14.8198 76.3882 14.7896 76.312 14.7896H74.6551C74.5789 14.7896 74.5059 14.7594 74.4521 14.7056C74.3983 14.6518 74.368 14.5788 74.368 14.5028V12.3745C74.368 12.2984 74.3983 12.2255 74.4521 12.1717C74.5059 12.1179 74.5789 12.0877 74.6551 12.0877H76.3122C76.3884 12.0877 76.4614 12.0574 76.5152 12.0036C76.569 11.9498 76.5993 11.8769 76.5993 11.8008V7.52155C76.5993 7.44548 76.6295 7.37251 76.6834 7.31872C76.7372 7.26492 76.8102 7.2347 76.8863 7.2347H79.5409C79.617 7.2347 79.69 7.26492 79.7438 7.31872C79.7977 7.37251 79.8279 7.44548 79.8279 7.52155V11.8008C79.8279 11.8769 79.8582 11.9498 79.912 12.0036C79.9658 12.0574 80.0388 12.0877 80.115 12.0877H82.0345C82.1106 12.0877 82.1836 12.1179 82.2375 12.1717C82.2913 12.2255 82.3215 12.2984 82.3215 12.3745V14.5029C82.3215 14.579 82.2913 14.652 82.2375 14.7058C82.1836 14.7596 82.1106 14.7898 82.0345 14.7898H80.1152V14.7896ZM92.2706 20.6133C92.8743 19.9837 93.1761 19.1618 93.1761 18.1473C93.1761 17.1334 92.8743 16.3111 92.2706 15.6815C91.6668 15.052 90.8748 14.7372 89.8948 14.7372C88.9147 14.7372 88.1232 15.052 87.5193 15.6815C86.9157 16.3111 86.6138 17.1334 86.6138 18.1473C86.6138 19.1618 86.9157 19.9837 87.5193 20.6133C88.1232 21.2428 88.9147 21.5576 89.8948 21.5576C90.8748 21.5576 91.6668 21.2428 92.2706 20.6133ZM86.1413 23.8398C85.2488 23.3328 84.5442 22.5937 84.0283 21.6232C83.5118 20.6527 83.2539 19.4942 83.2539 18.1473C83.2539 16.801 83.5118 15.6421 84.0283 14.6716C84.5442 13.7011 85.2488 12.9626 86.1413 12.455C87.0338 11.9479 88.0136 11.6943 89.0812 11.6943C90.0261 11.6943 90.8354 11.8779 91.5095 12.245C92.1827 12.6122 92.7208 13.1284 93.1237 13.7929H93.1761V12.3745C93.1761 12.2984 93.2063 12.2255 93.2602 12.1717C93.314 12.1179 93.387 12.0877 93.4631 12.0877H96.0915C96.1676 12.0877 96.2406 12.1179 96.2944 12.1717C96.3483 12.2255 96.3785 12.2984 96.3785 12.3745V23.9201C96.3785 23.9962 96.3483 24.0691 96.2944 24.1229C96.2406 24.1767 96.1676 24.2069 96.0915 24.2069H93.4631C93.387 24.2069 93.314 24.1767 93.2602 24.1229C93.2063 24.0691 93.1761 23.9962 93.1761 23.9201V22.5019H93.1237C92.7208 23.1668 92.1827 23.6824 91.5093 24.0495C90.8354 24.4167 90.0263 24.6003 89.0812 24.6003C88.0136 24.6003 87.0338 24.3467 86.1413 23.8398ZM107.31 20.6133C107.913 19.9837 108.215 19.1618 108.215 18.1473C108.215 17.1334 107.913 16.3111 107.31 15.6815C106.706 15.052 105.914 14.7372 104.934 14.7372C103.954 14.7372 103.162 15.052 102.559 15.6815C101.955 16.3111 101.653 17.1334 101.653 18.1473C101.653 19.1618 101.955 19.9837 102.559 20.6133C103.162 21.2428 103.954 21.5576 104.934 21.5576C105.914 21.5576 106.706 21.2428 107.31 20.6133ZM103.32 24.0495C102.646 23.6824 102.108 23.1668 101.705 22.5019H101.653V23.9201C101.653 23.9962 101.623 24.0691 101.569 24.1229C101.515 24.1767 101.442 24.2069 101.366 24.2069H98.7112C98.6351 24.2069 98.5621 24.1767 98.5082 24.1229C98.4544 24.0691 98.4242 23.9962 98.4242 23.9201V6.13109C98.4242 6.05501 98.4544 5.98205 98.5082 5.92826C98.5621 5.87446 98.6351 5.84424 98.7112 5.84424H101.366C101.442 5.84424 101.515 5.87446 101.569 5.92826C101.623 5.98205 101.653 6.05501 101.653 6.13109V13.7927H101.705C102.108 13.1282 102.646 12.6122 103.32 12.245C103.993 11.8777 104.803 11.6941 105.748 11.6941C106.815 11.6941 107.795 11.9477 108.688 12.4548C109.58 12.9624 110.285 13.7009 110.801 14.6712C111.317 15.6423 111.575 16.8012 111.575 18.1475C111.575 19.4943 111.317 20.6527 110.801 21.6234C110.285 22.5939 109.581 23.333 108.688 23.8398C107.795 24.3469 106.815 24.6007 105.748 24.6007C104.803 24.6007 103.994 24.4171 103.32 24.0497L103.32 24.0495ZM116.048 24.2071H113.393C113.317 24.2071 113.244 24.1769 113.19 24.1231C113.137 24.0693 113.106 23.9963 113.106 23.9203V6.13166C113.106 6.05559 113.137 5.98262 113.19 5.92883C113.244 5.87503 113.317 5.84481 113.393 5.84481H116.048C116.124 5.84481 116.197 5.87503 116.251 5.92883C116.305 5.98262 116.335 6.05559 116.335 6.13166V23.9203C116.335 23.9963 116.305 24.0693 116.251 24.1231C116.197 24.1769 116.124 24.2071 116.048 24.2071ZM122.31 14.8948C121.869 15.2379 121.572 15.7332 121.418 16.3811C121.376 16.5597 121.516 16.731 121.699 16.731H126.751C126.927 16.731 127.064 16.5742 127.036 16.4013C126.935 15.7884 126.672 15.2998 126.247 14.9342C125.748 14.5058 125.096 14.2916 124.291 14.2916C123.486 14.2916 122.826 14.4926 122.31 14.8948ZM128.78 13.3863C129.812 14.5146 130.329 16.1105 130.329 18.1737V18.5164C130.329 18.5925 130.299 18.6654 130.245 18.7192C130.191 18.773 130.118 18.8032 130.042 18.8032H121.602C121.56 18.8033 121.518 18.8126 121.48 18.8303C121.442 18.8481 121.408 18.874 121.381 18.9061C121.354 18.9383 121.335 18.976 121.324 19.0165C121.313 19.0571 121.311 19.0995 121.318 19.1409C121.453 19.9074 121.792 20.5163 122.336 20.9674C122.957 21.4838 123.74 21.7414 124.685 21.7414C125.905 21.7414 127.034 21.2656 128.073 20.3138C128.2 20.1975 128.401 20.2222 128.499 20.3635L129.79 22.2147C129.83 22.2722 129.848 22.3427 129.84 22.4125C129.832 22.4824 129.798 22.5469 129.746 22.5937C129.112 23.1478 128.408 23.6154 127.651 23.9841C126.811 24.3949 125.822 24.6007 124.685 24.6007C123.373 24.6007 122.226 24.3337 121.246 23.8006C120.266 23.2674 119.505 22.5155 118.963 21.5446C118.42 20.5741 118.149 19.4506 118.149 18.1737C118.149 16.8974 118.412 15.7695 118.937 14.7898C119.461 13.8107 120.196 13.0499 121.142 12.5076C122.087 11.9658 123.189 11.6945 124.449 11.6945C126.303 11.6945 127.747 12.2586 128.78 13.3863ZM63.5223 7.8195C63.5223 8.9015 62.6445 9.77869 61.5616 9.77869C60.4785 9.77869 59.6007 8.9015 59.6007 7.81931C59.6007 6.73711 60.4787 5.85992 61.5616 5.85992C62.6445 5.85992 63.5223 6.73711 63.5223 7.81931" fill="#333333"></path>
  <path d="M15.3207 0.670805L2.69854 5.89016C1.99663 6.18045 2.0039 7.17698 2.71021 7.45675L15.385 12.4797C16.4986 12.9211 17.7388 12.9211 18.8525 12.4797L31.5274 7.45656C32.2335 7.17698 32.2412 6.18065 31.5389 5.89035L18.9171 0.670614C17.7656 0.194431 16.472 0.194431 15.3205 0.670614" fill="#FCB400"></path>
  <path d="M18.2437 15.2221V27.7704C18.2437 28.367 18.8459 28.7759 19.401 28.5559L33.5246 23.0775C33.6821 23.0151 33.8172 22.9068 33.9124 22.7667C34.0076 22.6266 34.0585 22.4612 34.0585 22.2919V9.74385C34.0585 9.14701 33.4563 8.73834 32.9011 8.95826L18.7775 14.4367C18.6201 14.4992 18.485 14.6075 18.3898 14.7475C18.2946 14.8876 18.2437 15.053 18.2437 15.2223" fill="#18BFFF"></path>
  <path d="M14.9457 15.8703L10.7541 17.8928L10.3285 18.0984L1.48037 22.3351C0.919685 22.6056 0.203613 22.1971 0.203613 21.5744V9.79707C0.203613 9.57179 0.319195 9.37731 0.474197 9.23101C0.537787 9.16773 0.609928 9.11366 0.688522 9.07038C0.899784 8.94359 1.20137 8.90974 1.45779 9.01109L14.8752 14.324C15.5573 14.5944 15.6108 15.5494 14.9457 15.8705" fill="#F82B60"></path>
  <path d="M14.9456 15.8703L10.754 17.8928L0.474121 9.23082C0.537723 9.16761 0.609864 9.1136 0.688445 9.07038C0.899708 8.94359 1.20129 8.90974 1.45772 9.01109L14.8752 14.324C15.5572 14.5944 15.6108 15.5494 14.9456 15.8705" fill="black" fill-opacity="0.25"></path>
</svg>
