<?xml version="1.0" encoding="UTF-8"?>
<svg xmlns="http://www.w3.org/2000/svg" width="48" height="49" viewBox="0 0 48 49" fill="none">
  <rect opacity="0.1" y="0.106934" width="48" height="48" rx="14" fill="#4B09B2"></rect>
  <path opacity="0.3" d="M34.1111 25.5512C34.1111 27.8366 33.4334 30.0708 32.1636 31.9711C30.8939 33.8714 29.0892 35.3525 26.9777 36.2271C24.8662 37.1017 22.5427 37.3306 20.3012 36.8847C18.0596 36.4388 16.0006 35.3382 14.3845 33.7222C12.7685 32.1061 11.6679 30.0471 11.222 27.8055C10.7762 25.564 11.005 23.2405 11.8796 21.129C12.7542 19.0175 14.2353 17.2128 16.1356 15.9431C18.0359 14.6733 20.2701 13.9956 22.5556 13.9956V25.5512H34.1111Z" fill="#4B09B2"></path>
  <path d="M25.4442 11.1072C26.9617 11.1072 28.4644 11.406 29.8663 11.9868C31.2683 12.5675 32.5422 13.4187 33.6152 14.4917C34.6883 15.5647 35.5394 16.8386 36.1202 18.2406C36.7009 19.6426 36.9998 21.1452 36.9998 22.6627L25.4442 22.6627L25.4442 11.1072Z" fill="#4B09B2"></path>
</svg>
