<?xml version="1.0" encoding="UTF-8"?>
<svg xmlns="http://www.w3.org/2000/svg" width="49" height="49" viewBox="0 0 49 49" fill="none">
  <rect opacity="0.1" x="0.935547" y="0.438965" width="48" height="48" rx="14" fill="#4B09B2"></rect>
  <path d="M31.4352 35.9433H18.4352C16.2811 35.9433 14.5352 34.1985 14.5352 32.0459V13.8579C14.5352 11.7052 16.2811 9.96045 18.4352 9.96045H27.5352L35.3352 17.7553V32.0459C35.3352 34.1985 33.5893 35.9433 31.4352 35.9433Z" fill="#4B09B2"></path>
  <path d="M27.5352 15.157V9.96045L35.3352 17.7553H30.1352C28.6987 17.7553 27.5352 16.5926 27.5352 15.157Z" fill="#D5D5D5" fill-opacity="0.5"></path>
  <path d="M19.2241 29.485C18.9568 29.485 18.6884 29.3925 18.4725 29.203C17.9974 28.7876 17.9494 28.0662 18.364 27.5925L22.3618 23.0266C22.5811 22.7732 22.8712 22.6477 23.2356 22.6362C23.5702 22.6408 23.8855 22.7903 24.1002 23.046L26.0603 25.3974L29.7542 20.7814C30.1505 20.2905 30.8667 20.2084 31.3601 20.6033C31.8524 20.9982 31.9324 21.7162 31.5383 22.2082L26.9695 27.9155C26.7547 28.1826 26.4315 28.3401 26.0888 28.3435C25.7313 28.3949 25.4195 28.1951 25.2002 27.9337L23.2013 25.5355L20.0842 29.0946C19.858 29.3537 19.5416 29.485 19.2241 29.485Z" fill="#EDECFF"></path>
</svg>
