<?xml version="1.0" encoding="UTF-8"?>
<svg xmlns="http://www.w3.org/2000/svg" width="90" height="31" viewBox="0 0 90 31" fill="none">
  <path fill-rule="evenodd" clip-rule="evenodd" d="M89.748 9.99791V24.9023L81.6675 30.6107H76.6998V28.0735L72.9732 30.6107H68.6257V28.0735L65.8309 30.6107H57.7574L55.2735 28.0735L54.6521 30.6107L47.5257 30.5912L44.7156 28.0735L44.4052 30.6107L36.3317 30.5912L36.0213 28.0735L33.8479 30.5912L21.4269 30.6107L18.9425 29.3421V30.6107H12.1106L4.65786 25.8539L0 21.0971V0.167969H9.62612L14.284 4.92477H35.3999V0.167969H52.7897V4.92477H57.1372V7.46199L59.6216 4.92477H64.9009L69.5588 0.167969H79.4953V4.92477H84.7746L89.748 9.99791ZM12.1106 7.1437H7.7631V2.3869H2.17341V20.1461L5.58905 23.9513H12.1106V17.9259H7.7631V12.8528H12.1106V7.1437ZM35.3999 7.1437H29.8102V17.9266H27.6368V7.1437H22.3575V17.9266H20.1841V7.1437H14.284V23.9513H31.6738L35.3999 20.1461V7.1437ZM42.8526 7.1437H37.5733V23.9513H42.8526V7.1437ZM42.8526 2.3869H37.5733V4.92412H42.8526V2.3869ZM54.9632 7.1437H50.6157V2.3869H45.0266V20.1461L48.4423 23.9513H54.9619V17.9259H50.6144V12.8528H54.9619L54.9632 7.1437ZM69.2471 7.1437H60.5528L57.1372 10.6319V20.1461L60.8632 23.9513H69.2465V17.9259H63.036V12.8528H69.2465L69.2471 7.1437ZM87.5682 10.6319L83.8421 7.1437H77.3213V2.3869H71.4212V23.9513H77.3213V12.8515H81.6687V23.9507H87.5688L87.5682 10.6319Z" fill="#9147FF"></path>
</svg>
