<?xml version="1.0" encoding="UTF-8"?>
<svg xmlns="http://www.w3.org/2000/svg" width="131" height="33" viewBox="0 0 131 33" fill="none">
  <path d="M42.6226 12.8395C42.6226 10.5099 40.3558 8.03572 36.433 8.03572C32.028 8.03572 27.1889 11.265 26.4493 17.7076C25.6937 24.2144 29.7451 27.1063 33.8286 27.1063C37.9121 27.1063 40.0503 25.5157 42.2368 23.395C40.3558 21.0333 37.9282 22.1258 37.462 22.3668C36.9475 22.6238 36.2883 22.9773 34.9379 22.9773C33.3624 22.9773 31.7547 22.2704 31.7547 19.3303C41.8509 18.3342 42.6226 15.1691 42.6226 12.8395ZM37.6227 13.2251C37.5584 13.9481 37.269 15.1852 32.1566 15.876C33.2337 12.0523 35.2916 11.7631 36.2401 11.7631C37.1243 11.7631 37.687 12.4539 37.6227 13.2251ZM20.517 13.8517C20.517 13.8517 18.3466 20.6637 18.1698 21.2261C18.1055 20.6477 16.5139 8.42131 16.5139 8.42131C12.8162 8.42131 10.8387 11.0562 9.79374 13.8356C9.79374 13.8356 7.15715 20.6637 6.93207 21.2421C6.91599 20.7119 6.53015 13.9159 6.53015 13.9159C6.30507 10.5099 3.18617 8.43738 0.662109 8.43738L3.71671 26.9617C7.59122 26.9456 9.68121 24.3268 10.7744 21.5474C10.7744 21.5474 13.1056 15.5226 13.202 15.2494C13.2181 15.5065 14.874 26.9617 14.874 26.9617C18.7646 26.9617 20.8546 24.5036 21.98 21.8205L27.43 8.43738C23.5877 8.43738 21.562 11.0562 20.517 13.8517ZM56.8988 8.00359C54.5034 8.00359 52.6706 9.30495 51.1273 11.2168V11.2008L52.5099 0.0668945C49.3266 0.0668945 46.7383 2.83028 46.2399 6.94322L43.8284 26.8171C45.6611 26.8171 47.6064 26.2869 48.6514 24.9374C49.5839 26.1423 50.9826 27.1063 53.0565 27.1063C58.4261 27.1063 62.1077 20.8726 62.1077 15.0245C62.0756 9.69054 59.4872 8.00359 56.8988 8.00359ZM56.4005 17.563C55.8378 20.8244 54.0211 23.0415 52.2687 23.0415C50.5003 23.0415 49.7446 22.2543 49.7446 22.2543C50.0823 19.3945 50.2913 17.6433 50.9343 16.1331C51.5774 14.6229 53.1047 12.2129 54.6963 12.2129C56.2558 12.2129 56.9631 14.2855 56.4005 17.563ZM75.5158 8.43738H71.7699L71.786 8.24459C72.0432 5.80253 72.622 4.51723 74.5351 4.30837C75.8373 4.17984 76.4161 3.50506 76.5608 2.76601C76.6733 2.18763 77.027 0.179358 77.027 0.179358C69.5031 0.131159 67.1398 3.37653 66.5288 8.32492L66.5128 8.43738H66.4324C65.2105 8.43738 63.8601 9.81907 63.635 11.5703L63.5546 12.2129H66.0626L63.9566 29.5966L63.3135 32.7134C63.3939 32.7134 63.4903 32.7295 63.5707 32.7295C67.0915 32.6009 69.3423 29.8215 69.8407 25.7889L71.4805 12.2129H72.6541C73.8116 12.2129 75.1621 11.0562 75.4033 9.12823L75.5158 8.43738ZM95.0009 8.11606C90.6762 8.11606 86.5927 11.2972 85.3387 16.2937C84.0847 21.2903 85.9818 27.2027 92.3482 27.2027C98.6986 27.2027 102.364 21.0493 102.364 15.9242C102.364 10.8312 98.9076 8.11606 95.0009 8.11606ZM96.7533 17.4023C96.5282 19.6676 95.5314 23.1058 92.7984 23.1058C90.0492 23.1058 90.4351 19.0893 90.7084 17.1774C90.9978 15.137 92.1392 12.229 94.599 12.229C96.8015 12.229 97.0105 14.8478 96.7533 17.4023ZM123.73 13.8517C123.73 13.8517 121.56 20.6637 121.383 21.2261C121.319 20.6477 119.727 8.42131 119.727 8.42131C116.029 8.42131 114.052 11.0562 113.007 13.8356C113.007 13.8356 110.37 20.6637 110.145 21.2421C110.129 20.7119 109.743 13.9159 109.743 13.9159C109.518 10.5099 106.399 8.43738 103.875 8.43738L106.914 26.9617C110.788 26.9456 112.878 24.3268 113.972 21.5474C113.972 21.5474 116.303 15.5226 116.383 15.2494C116.415 15.5065 118.055 26.9617 118.055 26.9617C121.946 26.9617 124.036 24.5036 125.161 21.8205L130.611 8.43738C126.785 8.43738 124.759 11.0562 123.73 13.8517ZM79.0527 0.179358L75.9016 25.58L75.2586 28.7129C75.3389 28.7129 75.4354 28.729 75.5158 28.729C78.908 28.6808 81.3195 25.7085 81.7697 21.9651L83.5863 7.39308C84.133 2.94274 81.4803 0.179358 79.0527 0.179358Z" fill="#4353FF"></path>
</svg>
