<?xml version="1.0" encoding="UTF-8"?>
<svg xmlns="http://www.w3.org/2000/svg" width="121" height="30" viewBox="0 0 121 30" fill="none">
  <path d="M13.5356 0.491207C11.9883 0.666699 9.66739 1.39567 8.34685 2.12463C4.79874 4.05505 2.39776 7.06541 1.19727 11.0747C0.957175 11.8577 0.677061 13.9906 0.6904 14.9896C0.6904 15.867 0.957175 18.0134 1.11724 18.5264C1.19727 18.7694 1.37068 19.3499 1.5174 19.7953C1.7575 20.5513 2.91797 22.9272 3.11805 23.0892C3.15807 23.1297 3.37149 23.3997 3.57157 23.7102C4.06511 24.4526 5.35897 25.7756 6.3327 26.5315C7.07967 27.112 9.18719 28.3404 9.45397 28.3539C9.52066 28.3539 9.534 27.841 9.49398 27.166C9.40061 25.6676 9.68072 23.6292 10.281 21.5503C10.3877 21.1993 10.4677 20.7403 10.4677 20.5378C10.4677 20.3353 10.5211 20.1193 10.5878 20.0518C10.6545 19.9708 10.7745 19.5793 10.8412 19.1744C10.9212 18.7694 11.0546 18.1484 11.148 17.7974C11.2814 17.2709 11.268 17.0685 11.0813 16.5015C10.8145 15.6375 10.8012 14.2336 11.068 13.5586C11.6949 11.9522 12.3885 11.3447 13.5623 11.3447C14.9762 11.3447 15.6565 12.4247 15.3897 14.2336C15.2697 15.057 14.9362 16.353 14.7228 16.758C14.6694 16.8795 14.576 17.217 14.536 17.5004C14.4827 17.7974 14.376 18.2159 14.3093 18.4454C14.1225 18.9719 14.4827 19.9978 14.9629 20.3893C15.4164 20.7538 16.3634 20.8618 17.2305 20.6593C17.844 20.5243 18.0975 20.3623 18.7377 19.7413C19.4981 18.9854 20.0716 18.1079 20.0716 17.6894C20.0716 17.5679 20.1383 17.4059 20.2183 17.3249C20.5918 16.947 20.7919 14.0041 20.5118 12.7622C20.205 11.3987 19.258 10.0623 18.0308 9.27931C16.8036 8.48284 14.2693 8.25336 12.7086 8.79333C11.6148 9.17131 10.6411 9.80579 10.0142 10.5483C9.45397 11.2097 8.86706 12.2897 8.86706 12.6677C8.86706 12.8027 8.80037 12.9781 8.72033 13.0591C8.6403 13.1401 8.54693 13.6531 8.50691 14.2066C8.44022 15.03 8.49358 15.408 8.73367 16.218C8.89374 16.7715 9.18719 17.4194 9.36059 17.6624C9.72074 18.1484 9.72074 18.3374 9.38727 19.6333C9.2939 19.9843 9.13384 20.3083 9.04046 20.3488C8.20012 20.6728 6.49276 18.6344 5.91919 16.6095C5.70577 15.84 5.69244 13.0996 5.90586 12.2897C5.99923 11.9522 6.15929 11.4932 6.266 11.2502C6.37271 11.0207 6.46608 10.7912 6.46608 10.7372C6.46608 10.6832 6.73286 10.2243 7.06633 9.72479C8.80037 7.07891 11.6148 5.67497 15.1763 5.67497C15.99 5.67497 16.8303 5.72897 17.0571 5.79647C18.8978 6.37694 19.3913 6.56593 20.1116 6.99791C21.5122 7.84837 22.526 9.00932 23.5397 10.9532C23.6064 11.0747 23.6998 11.3987 23.7398 11.6687C23.7931 11.9387 23.8865 12.1952 23.9532 12.2357C24.0199 12.2762 24.0732 13.1536 24.0732 14.1931C24.0732 16.0695 23.9399 16.8255 23.3796 18.3644C22.7527 20.0518 21.1387 21.9147 19.6715 22.6437C18.8311 23.0487 17.2571 23.4942 16.6302 23.4942C15.7899 23.4942 14.1359 22.7922 13.6824 22.2252C13.4689 21.9687 13.2689 22.0632 13.2689 22.4277C13.2689 22.5627 13.2155 22.7922 13.1355 22.9272C13.0688 23.0487 12.9487 23.4267 12.882 23.7642C12.4952 25.5461 11.9483 26.9905 11.108 28.3404C10.8545 28.7589 11.068 29.0019 11.7616 29.0964C12.1084 29.1504 12.5752 29.2449 12.7887 29.3124C13.3222 29.4879 16.2167 29.4609 17.1904 29.2854C18.0708 29.1234 19.4981 28.7184 20.1383 28.4484C24.1666 26.7745 27.2212 23.3727 28.5417 19.0394C29.2487 16.731 29.2887 14.0446 28.6484 11.3447C28.435 10.4673 28.3683 10.2648 27.7948 8.91483C26.9678 6.94391 25.1003 4.63552 23.2062 3.21808C21.5789 2.00314 19.9782 1.30117 17.4839 0.693698C16.7903 0.531705 14.3226 0.396711 13.5356 0.491207ZM49.1101 5.36449C48.5899 5.44548 47.7629 6.30944 47.5495 6.98441C47.3227 7.72688 47.5495 8.52334 48.1897 9.14431C49.6036 10.5348 52.058 9.22531 51.7512 7.2274C51.5644 5.95846 50.4173 5.1485 49.1101 5.36449ZM34.5709 6.16095C34.4508 6.29594 34.4508 22.5762 34.5842 22.7652C34.6509 22.8732 35.2244 22.9137 36.3449 22.9002L38.0123 22.8867L38.0789 20.1463C38.1323 17.9189 38.1857 17.3789 38.3457 17.2844C38.4524 17.2169 39.3595 17.1495 40.3599 17.1495C42.5474 17.1495 43.4678 16.9875 44.4682 16.4475C45.7754 15.732 46.5357 14.7061 46.9492 13.0726C47.2027 12.0467 47.2027 11.3042 46.9359 10.2513C46.6958 9.30631 46.5891 9.07682 46.0155 8.30735C45.3086 7.3489 44.5883 6.82242 43.4145 6.40394C42.7609 6.18795 42.214 6.14745 38.6792 6.10695C36.4783 6.07995 34.6242 6.10695 34.5709 6.16095ZM41.8938 9.5223C42.7875 9.80578 43.2277 10.2108 43.4278 10.9397C43.6812 11.8982 43.4945 12.7891 42.9343 13.3291C42.3207 13.9096 41.7738 14.0446 39.9864 14.0446C38.8126 14.0446 38.4524 14.0041 38.2924 13.8286C38.119 13.6666 38.0789 13.2751 38.0789 11.7362C38.0789 9.30631 38.0656 9.31981 39.9197 9.31981C40.72 9.31981 41.4937 9.4008 41.8938 9.5223ZM65.29 8.72583C65.29 9.65729 65.2233 10.5348 65.1566 10.6832C65.0633 10.8587 64.8765 10.9397 64.5564 10.9397C64.3163 10.9397 64.0895 10.9937 64.0629 11.0747C64.0495 11.1422 64.0495 11.6147 64.0895 12.1142C64.1562 13.0051 64.1696 13.0186 64.5697 13.1131C64.7965 13.1536 65.0499 13.2346 65.13 13.2886C65.25 13.3561 65.29 14.4226 65.29 17.1225C65.29 20.7538 65.3034 20.8888 65.5968 21.4288C66.2104 22.5762 67.1708 22.9812 69.1182 22.9272L70.4254 22.8867L70.4655 21.5773L70.5055 20.2543H70.172C69.6651 20.2543 68.9182 19.8493 68.8381 19.5253C68.7981 19.3634 68.7581 17.9324 68.7581 16.326C68.7581 14.1121 68.7981 13.3696 68.9315 13.2616C69.0249 13.1806 69.3984 13.0996 69.7585 13.0726L70.4254 13.0321V11.0072L69.6918 10.9667C69.2916 10.9397 68.9182 10.8452 68.8648 10.7642C68.8114 10.6697 68.7581 9.79229 68.7581 8.80683V7.02491H65.29V8.72583ZM114.87 7.10591C114.817 7.15991 114.777 8.01037 114.777 8.99582C114.777 10.9127 114.763 10.9397 114.03 10.9397C113.696 10.9397 113.696 10.9532 113.736 11.9792C113.776 13.0051 113.79 13.0321 114.137 13.0726C114.323 13.0996 114.55 13.1941 114.617 13.2751C114.697 13.3696 114.777 15.003 114.817 17.082C114.857 19.0799 114.924 20.9023 114.977 21.1183C115.137 21.7122 115.964 22.4682 116.751 22.7247C117.631 23.0217 119.872 23.0487 120.099 22.7652C120.206 22.6437 120.246 22.1577 120.219 21.4558L120.179 20.3218L119.712 20.2408C119.205 20.1598 118.632 19.8898 118.485 19.6603C118.432 19.5793 118.378 18.1079 118.378 16.3935C118.378 12.8701 118.298 13.0996 119.459 13.0996C120.219 13.0996 120.286 12.9646 120.219 11.7362L120.179 11.0072L119.312 10.9397L118.445 10.8722L118.378 8.98232L118.312 7.09241L116.631 7.05191C115.711 7.03841 114.924 7.06541 114.87 7.10591ZM58.6873 10.6157C58.0337 10.7912 57.2734 11.2367 56.7665 11.7632C56.153 12.4112 55.9929 12.3707 55.9262 11.5472L55.8862 11.0072H52.5515V22.8867L54.2322 22.9137C55.8862 22.9542 55.9262 22.9407 56.0062 22.6437C56.0463 22.4817 56.0863 20.7673 56.0863 18.8234C56.0863 14.9761 56.0996 14.8681 56.8866 14.1121C57.2334 13.7746 57.4201 13.7071 58.1671 13.6666L59.0341 13.6126L59.5544 14.1661C60.1679 14.8141 60.1012 14.1931 60.1546 19.7818C60.1679 21.2668 60.1813 22.5762 60.1946 22.7112C60.2213 22.9002 60.4347 22.9272 61.9286 22.9002L63.6227 22.8867V13.4101L63.2358 12.6407C62.5689 11.3042 61.5418 10.6697 59.9678 10.5887C59.4076 10.5753 58.8341 10.5752 58.6873 10.6157ZM75.3608 10.6157C73.9202 11.0072 73.2266 11.3987 72.3329 12.2897C71.1324 13.5181 70.5855 14.9491 70.5855 16.8795C70.5988 20.2678 72.693 22.7787 75.7876 23.0757C78.4287 23.3322 80.4695 22.5492 81.7767 20.7808C81.9635 20.5243 82.3636 19.7008 82.3636 19.5523C82.3636 19.4983 81.59 19.4443 80.6563 19.4443H78.9489L78.5488 19.8628C78.0819 20.3488 77.4283 20.6593 76.828 20.6593C76.2278 20.6593 75.3074 20.2273 74.8806 19.7683C74.5605 19.4039 74.0936 18.3509 74.0936 17.9864C74.0936 17.8649 75.0673 17.8244 78.2019 17.8244C80.4562 17.8244 82.3636 17.7704 82.457 17.7164C82.6571 17.5814 82.4703 15.435 82.1769 14.6521C81.5766 13.0186 80.4428 11.6417 79.2957 11.1557C78.9622 11.0207 78.5754 10.8452 78.442 10.7777C78.1619 10.6292 75.7876 10.5078 75.3608 10.6157ZM77.9618 13.5721C78.4821 13.9366 78.9356 14.8006 78.8689 15.2865C78.8289 15.597 78.8022 15.597 76.5479 15.6375C73.9469 15.678 73.9335 15.6645 74.347 14.6926C74.6405 14.0176 75.2274 13.4101 75.7743 13.2346C76.4012 13.0321 77.415 13.1941 77.9618 13.5721ZM95.1021 10.6157C93.5549 11.0342 92.4744 11.7227 91.6341 12.7891C91.3006 13.2211 91.0338 13.6261 91.0338 13.7071C91.0338 13.7746 90.9405 14.0176 90.8204 14.2471C90.7004 14.4631 90.5269 15.138 90.4336 15.7455C89.9667 18.6344 91.2472 21.3343 93.6482 22.5492L94.5686 23.0217H96.5027C98.5035 23.0217 98.6769 22.9812 99.9041 22.3197C100.798 21.8337 102.265 19.9438 102.038 19.5658C101.985 19.4983 101.225 19.4443 100.331 19.4443H98.6903L98.3568 19.8358C97.0229 21.3613 94.5286 20.5783 93.995 18.4589C93.915 18.1754 93.915 17.9324 93.9817 17.8784C94.0484 17.8379 95.9558 17.8109 98.2368 17.8244C101.491 17.8244 102.372 17.7974 102.385 17.6624C102.505 15.975 101.705 13.4776 100.704 12.3977C100.144 11.7902 99.1705 11.1152 98.6903 10.9937C98.4769 10.9397 98.2368 10.8452 98.1434 10.7777C97.9566 10.6292 95.5156 10.5078 95.1021 10.6157ZM97.183 13.2481C97.7832 13.4641 98.4769 14.2201 98.5836 14.8006C98.7436 15.678 98.757 15.678 96.276 15.6375C94.0484 15.597 94.035 15.597 93.995 15.2865C93.9417 14.9086 94.4085 13.9771 94.8087 13.6261C95.3823 13.1401 96.3827 12.9781 97.183 13.2481ZM106.707 10.6157C103.972 11.2772 102.985 12.2627 102.972 14.3146C102.972 16.5285 104.066 17.4599 107.307 18.0404C109.535 18.4319 110.175 18.7829 110.148 19.6333C110.135 20.2408 109.721 20.6323 108.894 20.8078C107.854 21.0373 107.04 20.7808 106.387 20.0383L105.867 19.4443H104.253C102.945 19.4443 102.639 19.4848 102.639 19.6333C102.639 20.0248 103.172 21.0508 103.612 21.5638C104.026 22.0092 104.346 22.2252 105.6 22.8327C105.72 22.9002 106.373 23.0082 107.027 23.0892C108.241 23.2377 110.348 23.1027 110.882 22.8327C111.002 22.7787 111.349 22.6032 111.642 22.4682C112.403 22.1037 113.123 21.2803 113.39 20.4973C113.683 19.6063 113.603 18.3644 113.19 17.5004C112.696 16.488 111.389 15.759 109.441 15.408C106.934 14.9626 106.894 14.9491 106.493 14.5576C106.013 14.0581 106.013 13.8826 106.493 13.3426C106.88 12.9106 106.907 12.8971 107.974 12.8971C109.041 12.8971 109.068 12.9106 109.455 13.3426C109.668 13.5856 109.841 13.8691 109.841 13.9771C109.841 14.1391 110.122 14.1796 111.509 14.1796C113.35 14.1796 113.296 14.2201 112.976 13.2616C112.389 11.5607 110.882 10.6967 108.374 10.6022C107.601 10.5753 106.854 10.5752 106.707 10.6157ZM88.9663 10.8992C88.3794 11.1017 87.5658 11.7767 87.3123 12.2627C87.0589 12.7487 86.8321 12.5462 86.7654 11.7362L86.6987 11.0072H83.364L83.324 16.677C83.3107 19.7953 83.324 22.4817 83.364 22.6572C83.4307 22.9542 83.4707 22.9542 85.0714 22.9272C85.9918 22.9137 86.7387 22.8327 86.7921 22.7517C86.8455 22.6842 86.8988 21.2533 86.8988 19.5793C86.8988 16.9335 86.9255 16.461 87.1523 15.867C87.6191 14.6386 88.6195 13.9096 89.8734 13.9096C90.2202 13.9096 90.3669 13.8421 90.4069 13.6666C90.5003 13.2751 90.5136 11.4527 90.4336 11.0477C90.3535 10.7237 90.2869 10.6697 89.9267 10.6832C89.6866 10.6967 89.2598 10.7912 88.9663 10.8992ZM47.8829 11.1017C47.8429 11.1962 47.8296 13.8556 47.8429 17.0145L47.8829 22.7517L49.4702 22.8192C50.4306 22.8597 51.1243 22.8327 51.231 22.7517C51.3777 22.6437 51.4177 21.4963 51.4177 16.9065C51.431 13.7746 51.391 11.1422 51.351 11.0747C51.2176 10.8722 47.9496 10.8992 47.8829 11.1017Z" fill="#A0A3BD"></path>
</svg>
