<?xml version="1.0" encoding="UTF-8"?>
<svg xmlns="http://www.w3.org/2000/svg" width="93" height="43" viewBox="0 0 93 43" fill="none">
  <path fill-rule="evenodd" clip-rule="evenodd" d="M62.667 5.19153H59.251L61.6666 2.78387C61.4766 2.51804 61.2647 2.26859 61.0338 2.03856C60.8031 1.80854 60.5535 1.59794 60.2867 1.40858L57.8713 3.81624V0.411406C57.5552 0.358603 57.23 0.330685 56.8994 0.330078H56.8927C56.5615 0.330685 56.237 0.358603 55.9209 0.411406V3.81624L53.5054 1.40858C53.2386 1.59794 52.9885 1.80854 52.7582 2.03856L52.757 2.03978C52.5263 2.26919 52.3149 2.51804 52.1256 2.78387L54.5412 5.19153H51.1252C51.1252 5.19153 51.0436 5.83062 51.0436 6.1614V6.16564C51.0436 6.4958 51.0716 6.8205 51.1252 7.13611H54.5412L52.1256 9.54316C52.5056 10.0748 52.972 10.5403 53.5054 10.9185L55.9209 8.51078V11.9156C56.237 11.9684 56.5608 11.9963 56.8915 11.997H56.9C57.2306 11.9963 57.5558 11.9684 57.8713 11.9156V8.51078L60.2874 10.9185C60.5535 10.7297 60.8031 10.5185 61.0338 10.2885H61.0345C61.2647 10.0584 61.4766 9.80899 61.6666 9.54316L59.2504 7.13611H62.667C62.72 6.82112 62.748 6.49762 62.748 6.16746V6.15957C62.748 5.82941 62.72 5.50652 62.667 5.19153ZM68.3818 29.9887C67.4063 29.0752 66.8954 27.6344 66.848 25.6661H79.1521C79.1753 25.4088 79.199 25.0992 79.2221 24.7352C79.2459 24.3721 79.2581 24.0269 79.2581 23.6985C79.2581 22.5034 79.0931 21.397 78.7642 20.378C78.4349 19.359 77.9532 18.4807 77.3193 17.7427C76.6842 17.0047 75.8969 16.4251 74.9568 16.0033C74.0166 15.5815 72.9237 15.3703 71.6785 15.3703C70.2207 15.3703 68.9573 15.6222 67.888 16.1259C66.8188 16.6303 65.9316 17.3094 65.2265 18.1639C64.5219 19.0198 63.9983 20.0266 63.658 21.1858C63.3169 22.3463 63.1465 23.5934 63.1465 24.9281C63.1465 26.2876 63.3231 27.5348 63.6755 28.671C64.0281 29.8072 64.5865 30.7916 65.35 31.623C66.1137 32.4546 67.0836 33.0985 68.2589 33.5555C69.4334 34.0125 70.8436 34.2408 72.4895 34.2408C73.6172 34.2408 74.6451 34.1582 75.5742 33.995C76.5016 33.8305 77.354 33.5852 78.1297 33.2569C78.106 32.7647 78.036 32.2677 77.9185 31.7633C77.8004 31.2595 77.6481 30.8323 77.4599 30.4809C75.9554 31.0665 74.3698 31.3597 72.7007 31.3597C70.7967 31.3597 69.3573 30.9021 68.3818 29.9887ZM35.4372 15.7919C35.6717 15.7458 35.9128 15.7106 36.1595 15.6869C36.4066 15.6638 36.6587 15.6517 36.9175 15.6517C37.152 15.6517 37.3991 15.6638 37.6579 15.6869C37.916 15.7106 38.1633 15.7458 38.3983 15.7919C38.4215 15.8398 38.4514 15.9854 38.486 16.2318C38.5213 16.4776 38.5567 16.7411 38.592 17.0221C38.6274 17.3031 38.6626 17.5732 38.6979 17.8305C38.7333 18.0884 38.7503 18.2524 38.7503 18.3228C38.9854 17.9476 39.2673 17.5847 39.5967 17.2333C39.9255 16.8819 40.32 16.5651 40.7779 16.2847C41.2359 16.0031 41.7529 15.781 42.3294 15.6171C42.9043 15.4531 43.5448 15.3707 44.2505 15.3707C45.3077 15.3707 46.2891 15.5467 47.1947 15.8981C48.0988 16.2495 48.874 16.7939 49.5206 17.5313C50.1667 18.2699 50.672 19.207 51.0368 20.3426C51.4009 21.48 51.5829 22.82 51.5829 24.3664C51.5829 27.4587 50.7427 29.8779 49.0627 31.6228C47.3816 33.3684 45.0025 34.2411 41.9233 34.2411C41.4063 34.2411 40.8779 34.2059 40.3371 34.1355C39.7957 34.0651 39.3263 33.971 38.9269 33.8545V42.1123C38.6449 42.1584 38.3453 42.1936 38.0281 42.2173C37.7109 42.2403 37.4222 42.2525 37.1641 42.2525C36.9053 42.2525 36.6179 42.2403 36.3007 42.2173C35.9835 42.1936 35.6954 42.1584 35.4372 42.1123V15.7919ZM28.2098 21.9419C28.2098 20.5593 27.8572 19.5991 27.1522 19.0602C26.447 18.5219 25.4246 18.2523 24.085 18.2523C23.2618 18.2523 22.4928 18.3173 21.776 18.4454C21.0588 18.5746 20.3591 18.744 19.6784 18.9546C19.2314 18.1814 19.0086 17.257 19.0086 16.1785C19.8068 15.9212 20.688 15.7221 21.6525 15.5813C22.6158 15.4405 23.5438 15.3707 24.4376 15.3707C26.7874 15.3707 28.5738 15.9042 29.7959 16.9694C31.018 18.0357 31.6294 19.74 31.6294 22.0821V33.3623C30.8068 33.5499 29.8081 33.7429 28.633 33.942C27.4572 34.1404 26.2582 34.2406 25.0367 34.2406C23.8847 34.2406 22.8453 34.1355 21.9167 33.9243C20.9881 33.7131 20.2008 33.3745 19.5548 32.9047C18.9081 32.4374 18.4089 31.839 18.0563 31.1131C17.7037 30.3872 17.5277 29.509 17.5277 28.4772C17.5277 27.4709 17.7329 26.5861 18.1445 25.8244C18.5556 25.0639 19.1139 24.4309 19.819 23.9271C20.5242 23.424 21.3352 23.0483 22.2516 22.803C23.1687 22.5566 24.132 22.4335 25.1427 22.4335C25.8947 22.4335 26.5115 22.4517 26.9931 22.4862C27.4749 22.5221 27.8803 22.5628 28.2098 22.6095V21.9419ZM0.746582 33.3275L10.2656 18.5683H1.87489C1.80425 18.1465 1.76893 17.6786 1.76893 17.1627C1.76893 16.6711 1.80425 16.2135 1.87489 15.7917H15.448L15.624 16.2493L6.03493 31.043H15.0248C15.0948 31.5122 15.1307 31.9916 15.1307 32.4833C15.1307 32.953 15.0948 33.3973 15.0248 33.8197H0.923165L0.746582 33.3275ZM26.8701 25.2102C27.4109 25.2574 27.8572 25.3036 28.2098 25.3504V31.0784C27.7628 31.1956 27.252 31.283 26.6759 31.3413C26.1005 31.4008 25.5422 31.4298 25.0015 31.4298C24.5788 31.4298 24.132 31.4068 23.6619 31.3594C23.1918 31.3122 22.7631 31.1835 22.3753 30.9728C21.9874 30.7616 21.6641 30.4576 21.4059 30.0588C21.1464 29.6613 21.018 29.1102 21.018 28.4074C21.018 27.307 21.3992 26.4871 22.1639 25.9476C22.9269 25.4092 24.0376 25.1392 25.4953 25.1392C25.871 25.1392 26.3295 25.1635 26.8701 25.2102ZM40.3018 31.2186C39.8317 31.1488 39.3726 31.0317 38.9269 30.8672V23.5586C38.9269 22.6677 39.056 21.9018 39.3154 21.2566C39.5736 20.6127 39.914 20.0791 40.3371 19.6573C40.7604 19.2355 41.2414 18.9193 41.7826 18.7094C42.3227 18.4982 42.8872 18.3926 43.4748 18.3926C45.0488 18.3926 46.1832 18.9436 46.8767 20.0439C47.5697 21.1455 47.9168 22.6331 47.9168 24.5072C47.9168 25.6787 47.7694 26.6916 47.4759 27.5461C47.1818 28.4019 46.7823 29.1102 46.277 29.6722C45.7722 30.2348 45.167 30.6517 44.4618 30.92C43.7567 31.1895 42.9816 31.3242 42.1352 31.3242C41.3826 31.3242 40.7719 31.2885 40.3018 31.2186ZM55.9195 18.5331H53.6276C53.5807 18.3456 53.5454 18.129 53.5223 17.8832C53.4984 17.6374 53.4869 17.397 53.4869 17.1627C53.4869 16.9291 53.4984 16.6881 53.5223 16.4423C53.5454 16.1965 53.5807 15.9799 53.6276 15.7917H59.3398V33.8197C59.0803 33.8658 58.793 33.9004 58.4757 33.9241C58.1585 33.9471 57.8699 33.9593 57.6117 33.9593C57.3766 33.9593 57.1002 33.9471 56.7835 33.9241C56.4657 33.9004 56.1777 33.8658 55.9195 33.8197V18.5331ZM75.8032 23.0666C75.8032 22.4106 75.7149 21.7842 75.5389 21.1858C75.3623 20.5886 75.1035 20.0678 74.7632 19.6224C74.4215 19.1775 73.9874 18.8201 73.4583 18.5511C72.9297 18.2817 72.3007 18.1464 71.5724 18.1464C70.1385 18.1464 69.04 18.5803 68.2758 19.447C67.5123 20.3137 67.0483 21.5203 66.8833 23.0666H75.8032ZM83.8428 15.6869C83.6077 15.7106 83.3606 15.7458 83.1024 15.7919V33.8193C83.3843 33.8654 83.6838 33.9006 84.0017 33.9243C84.3189 33.9475 84.6064 33.9595 84.8657 33.9595C85.1233 33.9595 85.412 33.9475 85.7286 33.9243C86.0458 33.9006 86.3338 33.8654 86.5926 33.8193V24.8582C86.5926 23.6406 86.7277 22.6447 86.9981 21.8721C87.2679 21.0988 87.6326 20.4895 88.0905 20.044C88.549 19.5991 89.0653 19.289 89.642 19.113C90.218 18.9376 90.8233 18.8496 91.4578 18.8496H91.9333C92.1331 18.8496 92.3267 18.8733 92.5154 18.9194C92.5623 18.639 92.6037 18.3459 92.6391 18.0412C92.6737 17.7371 92.6914 17.4439 92.6914 17.1629C92.6914 16.905 92.6799 16.6592 92.656 16.4249C92.6329 16.1913 92.597 15.9679 92.5507 15.7567C92.4101 15.7343 92.2384 15.7166 92.0392 15.7045C91.8395 15.6923 91.6453 15.6869 91.4578 15.6869C90.1881 15.6869 89.1488 15.9801 88.3377 16.5651C87.5273 17.1508 86.8746 17.8427 86.3813 18.639C86.3813 18.2403 86.3454 17.7547 86.2753 17.18C86.2048 16.6071 86.1341 16.1433 86.0641 15.7919C85.8522 15.7458 85.6171 15.7106 85.359 15.6869C85.0996 15.6639 84.8414 15.6517 84.5832 15.6517C84.3245 15.6517 84.0772 15.6639 83.8428 15.6869ZM58.1343 7.39769C58.2792 7.01412 58.359 6.59959 58.359 6.16624V6.16078C58.359 5.72744 58.2792 5.31231 58.1343 4.92933C57.75 4.78489 57.3336 4.70538 56.8989 4.70538H56.8933C56.4585 4.70538 56.0421 4.78489 55.6572 4.92933C55.513 5.31231 55.4331 5.72744 55.4325 6.16078V6.16624C55.4331 6.59959 55.513 7.01473 55.6578 7.39769C56.0421 7.54214 56.4585 7.62165 56.8933 7.62165H56.8989C57.3336 7.62165 57.75 7.54214 58.1343 7.39769Z" fill="#FF4A00"></path>
</svg>
