<?xml version="1.0" encoding="UTF-8"?>
<svg xmlns="http://www.w3.org/2000/svg" width="175" height="35" viewBox="0 0 175 35" fill="none">
  <path d="M3.70022 2.32468H9.736C10.3523 2.32468 10.8199 2.47335 11.1387 2.74945C11.4575 3.02555 11.585 3.40785 11.5425 3.8751L9.90602 20.0165C9.86352 20.5475 9.79976 21.0997 9.71475 21.6944C9.62973 22.289 9.52347 22.905 9.35345 23.5634C9.736 22.905 10.1185 22.2678 10.5011 21.6944C10.8836 21.0997 11.2449 20.5475 11.6062 20.0165L22.5089 3.8751C22.7852 3.47157 23.189 3.13175 23.7203 2.79193C24.2516 2.47335 24.8254 2.32468 25.4205 2.32468H27.5458C28.1621 2.32468 28.6297 2.45211 28.9272 2.74945C29.2248 3.02555 29.3735 3.40785 29.3523 3.89634L28.4384 20.0377C28.4172 20.5262 28.3747 21.0572 28.3534 21.6094C28.3109 22.1616 28.2471 22.7775 28.1409 23.4147C28.4809 22.7988 28.821 22.2041 29.1398 21.6306C29.4585 21.0572 29.7773 20.5262 30.0961 20.0377L40.2337 3.89634C40.4887 3.4928 40.8925 3.13175 41.4451 2.81317C41.9764 2.49459 42.5502 2.34591 43.1453 2.34591H48.7985L27.9709 33.2907H21.4675L22.6364 14.1121C22.6364 13.8148 22.6577 13.4962 22.6789 13.1352C22.7002 12.7741 22.7427 12.4131 22.7852 12.0095C22.5514 12.4131 22.2964 12.7741 22.0626 13.1352C21.8288 13.4962 21.6163 13.8148 21.4038 14.1121L8.50334 33.2907H2L3.70022 2.32468Z" stroke="black" stroke-width="2" stroke-miterlimit="10"></path>
  <path d="M71.5813 33.2694H64.3554L69.116 20.1864H56.5344L51.7738 33.2694H44.5479L55.8118 2.32468H63.0377L58.3196 15.259H70.9013L75.6194 2.32468H82.8453L71.5813 33.2694Z" stroke="black" stroke-width="2" stroke-miterlimit="10"></path>
  <path d="M100.656 21.5032L96.3626 33.2694H89.1792L93.4722 21.5032L89.2217 2.32468H95.555C96.1714 2.32468 96.6177 2.47335 96.8939 2.77069C97.149 3.06803 97.319 3.42909 97.3828 3.8751L98.4879 12.8803C98.5729 13.6024 98.6579 14.2608 98.7429 14.8767C98.8279 15.4927 98.8704 16.0873 98.8704 16.682C99.2955 16.0661 99.7843 15.4714 100.294 14.8555C100.804 14.2396 101.378 13.5812 101.973 12.8803L109.582 3.8751C109.731 3.68395 109.922 3.51404 110.134 3.32289C110.347 3.13175 110.581 2.98308 110.836 2.81317C111.091 2.6645 111.346 2.53706 111.622 2.45211C111.898 2.36715 112.196 2.32468 112.493 2.32468H118.869L100.656 21.5032Z" stroke="black" stroke-width="2" stroke-miterlimit="10"></path>
  <path d="M148.368 1.96362L146.285 7.65559H137.571L128.369 32.9084H121.186L130.388 7.65559H121.674L123.757 1.96362H148.368Z" fill="#40FF8D" stroke="#40FF8D" stroke-width="3" stroke-miterlimit="10"></path>
  <path d="M173.403 1.96362L171.384 7.48568H158.675L156.04 14.7068H165.774L163.84 20.0165H154.106L151.428 27.3863H164.137L162.118 32.9084H142.183L153.447 1.96362H173.403Z" fill="#4B09B2" stroke="#561BB2" stroke-width="3" stroke-miterlimit="10"></path>
</svg>
