<?xml version="1.0" encoding="UTF-8"?>
<svg xmlns="http://www.w3.org/2000/svg" width="92" height="93" viewBox="0 0 92 93" fill="none">
  <rect x="0.000976562" y="0.876953" width="91.5618" height="91.5618" rx="20" fill="white"></rect>
  <path d="M66.9163 36.5468C66.4135 34.6814 64.9263 33.2097 63.0342 32.7054C59.6129 31.8003 45.8859 31.8003 45.8859 31.8003C45.8859 31.8003 32.1659 31.8003 28.7377 32.7054C26.8525 33.2028 25.3653 34.6745 24.8556 36.5468C23.9409 39.9323 23.9409 47.0003 23.9409 47.0003C23.9409 47.0003 23.9409 54.0683 24.8556 57.4537C25.3583 59.3192 26.8455 60.7908 28.7377 61.2952C32.1659 62.2003 45.8859 62.2003 45.8859 62.2003C45.8859 62.2003 59.6129 62.2003 63.0342 61.2952C64.9194 60.7977 66.4066 59.3261 66.9163 57.4537C67.8309 54.0683 67.8309 47.0003 67.8309 47.0003C67.8309 47.0003 67.8309 39.9323 66.9163 36.5468Z" fill="#FF3000"></path>
  <path d="M41.5011 53.5156L52.903 47.0003L41.5011 40.485V53.5156Z" fill="white"></path>
</svg>
