<?xml version="1.0" encoding="UTF-8"?>
<svg xmlns="http://www.w3.org/2000/svg" width="93" height="93" viewBox="0 0 93 93" fill="none">
  <rect x="0.438965" y="0.876953" width="91.5618" height="91.5618" rx="20" fill="white"></rect>
  <path d="M25 26.2796C25 24.6343 26.3783 23.2988 28.0774 23.2988H63.5618C65.2615 23.2988 66.6392 24.6343 66.6392 26.2796V61.9302C66.6392 63.576 65.2615 64.9105 63.5618 64.9105H28.0774C26.3785 64.9105 25 63.5762 25 61.9307V26.2791V26.2796Z" fill="#006699"></path>
  <path d="M37.6534 58.1223V39.3886H31.4224V58.1223H37.654H37.6534ZM34.5392 36.8313C36.7116 36.8313 38.0641 35.3928 38.0641 33.595C38.0234 31.7563 36.7116 30.3579 34.5805 30.3579C32.448 30.3579 31.0552 31.7563 31.0552 33.5948C31.0552 35.3926 32.4071 36.8311 34.4984 36.8311H34.5387L34.5392 36.8313ZM41.1023 58.1223H47.3327V47.6617C47.3327 47.1025 47.3734 46.5419 47.538 46.1425C47.9882 45.0234 49.0134 43.865 50.7351 43.865C52.9891 43.865 53.8913 45.5827 53.8913 48.1014V58.1223H60.1216V47.381C60.1216 41.627 57.0481 38.9494 52.9488 38.9494C49.5879 38.9494 48.1118 40.8267 47.2917 42.1052H47.3332V39.3893H41.1026C41.1839 41.1467 41.1021 58.123 41.1021 58.123L41.1023 58.1223Z" fill="white"></path>
</svg>
