<?xml version="1.0" encoding="UTF-8"?>
<svg xmlns="http://www.w3.org/2000/svg" width="93" height="93" viewBox="0 0 93 93" fill="none">
  <rect x="0.876953" y="0.876953" width="91.5618" height="91.5618" rx="20" fill="white"></rect>
  <path d="M40.0812 46.9998C40.0812 43.1798 43.179 40.0822 47.0013 40.0822C50.8236 40.0822 53.923 43.1798 53.923 46.9998C53.923 50.8198 50.8236 53.9173 47.0013 53.9173C43.179 53.9173 40.0812 50.8198 40.0812 46.9998ZM36.3395 46.9998C36.3395 52.8848 41.1127 57.6552 47.0013 57.6552C52.8898 57.6552 57.663 52.8848 57.663 46.9998C57.663 41.1148 52.8898 36.3444 47.0013 36.3444C41.1127 36.3444 36.3395 41.1148 36.3395 46.9998ZM55.5935 35.9219C55.5933 36.4144 55.7392 36.8959 56.0129 37.3055C56.2865 37.7151 56.6755 38.0344 57.1307 38.2231C57.5859 38.4117 58.0869 38.4613 58.5702 38.3654C59.0536 38.2695 59.4977 38.0325 59.8463 37.6844C60.1949 37.3363 60.4323 36.8927 60.5287 36.4097C60.625 35.9267 60.5759 35.426 60.3875 34.9709C60.1991 34.5158 59.8799 34.1268 59.4702 33.853C59.0606 33.5792 58.5789 33.433 58.0861 33.4328H58.0851C57.4246 33.4331 56.7911 33.6954 56.324 34.1621C55.8568 34.6288 55.5941 35.2618 55.5935 35.9219V35.9219ZM38.6128 63.8906C36.5885 63.7985 35.4882 63.4615 34.757 63.1768C33.7876 62.7996 33.0959 62.3504 32.3687 61.6246C31.6414 60.8988 31.1913 60.2082 30.8156 59.2394C30.5305 58.509 30.1933 57.409 30.1013 55.3859C30.0006 53.1985 29.9805 52.5415 29.9805 47C29.9805 41.4584 30.0023 40.8032 30.1013 38.6141C30.1935 36.5909 30.5332 35.4931 30.8156 34.7605C31.193 33.7917 31.6424 33.1004 32.3687 32.3736C33.0949 31.6469 33.7859 31.197 34.757 30.8215C35.4878 30.5366 36.5885 30.1996 38.6128 30.1076C40.8015 30.007 41.4589 29.9869 47.0013 29.9869C52.5436 29.9869 53.2017 30.0087 55.3922 30.1076C57.4165 30.1998 58.515 30.5393 59.248 30.8215C60.2174 31.197 60.9091 31.6479 61.6363 32.3736C62.3636 33.0994 62.8121 33.7917 63.1894 34.7605C63.4745 35.4909 63.8117 36.5909 63.9037 38.6141C64.0044 40.8032 64.0245 41.4584 64.0245 47C64.0245 52.5415 64.0044 53.1967 63.9037 55.3859C63.8115 57.409 63.4727 58.5086 63.1894 59.2394C62.8121 60.2082 62.3626 60.8995 61.6363 61.6246C60.9101 62.3497 60.2174 62.7996 59.248 63.1768C58.5172 63.4616 57.4165 63.7986 55.3922 63.8906C53.2036 63.9912 52.5461 64.0113 47.0013 64.0113C41.4564 64.0113 40.8008 63.9912 38.6128 63.8906V63.8906ZM38.4409 26.3744C36.2305 26.475 34.7201 26.8253 33.401 27.3383C32.035 27.868 30.8785 28.5787 29.7229 29.7318C28.5673 30.8849 27.858 32.0425 27.328 33.4077C26.8147 34.7268 26.4642 36.2355 26.3635 38.4446C26.2612 40.6571 26.2378 41.3645 26.2378 46.9998C26.2378 52.6351 26.2612 53.3425 26.3635 55.555C26.4642 57.7643 26.8147 59.2728 27.328 60.5919C27.858 61.9563 28.5675 63.1152 29.7229 64.2678C30.8783 65.4204 32.035 66.1301 33.401 66.6613C34.7226 67.1743 36.2305 67.5245 38.4409 67.6251C40.6559 67.7257 41.3626 67.7508 47.0013 67.7508C52.6399 67.7508 53.3477 67.7274 55.5616 67.6251C57.7722 67.5245 59.2816 67.1743 60.6015 66.6613C61.9667 66.1301 63.124 65.4209 64.2796 64.2678C65.4352 63.1147 66.143 61.9563 66.6746 60.5919C67.1878 59.2728 67.54 57.7641 67.639 55.555C67.7396 53.3408 67.7631 52.6351 67.7631 46.9998C67.7631 41.3645 67.7396 40.6571 67.639 38.4446C67.5383 36.2353 67.1878 34.726 66.6746 33.4077C66.143 32.0433 65.4334 30.8867 64.2796 29.7318C63.1258 28.5769 61.9667 27.868 60.6032 27.3383C59.2816 26.8253 57.772 26.4734 55.5633 26.3744C53.3494 26.2738 52.6416 26.2488 47.0029 26.2488C41.3642 26.2488 40.6559 26.2722 38.4409 26.3744Z" fill="url(#paint0_radial_158_332)"></path>
  <path d="M40.0812 46.9998C40.0812 43.1798 43.179 40.0822 47.0013 40.0822C50.8236 40.0822 53.923 43.1798 53.923 46.9998C53.923 50.8198 50.8236 53.9173 47.0013 53.9173C43.179 53.9173 40.0812 50.8198 40.0812 46.9998ZM36.3395 46.9998C36.3395 52.8848 41.1127 57.6552 47.0013 57.6552C52.8898 57.6552 57.663 52.8848 57.663 46.9998C57.663 41.1148 52.8898 36.3444 47.0013 36.3444C41.1127 36.3444 36.3395 41.1148 36.3395 46.9998ZM55.5935 35.9219C55.5933 36.4144 55.7392 36.8959 56.0129 37.3055C56.2865 37.7151 56.6755 38.0344 57.1307 38.2231C57.5859 38.4117 58.0869 38.4613 58.5702 38.3654C59.0536 38.2695 59.4977 38.0325 59.8463 37.6844C60.1949 37.3363 60.4323 36.8927 60.5287 36.4097C60.625 35.9267 60.5759 35.426 60.3875 34.9709C60.1991 34.5158 59.8799 34.1268 59.4702 33.853C59.0606 33.5792 58.5789 33.433 58.0861 33.4328H58.0851C57.4246 33.4331 56.7911 33.6954 56.324 34.1621C55.8568 34.6288 55.5941 35.2618 55.5935 35.9219V35.9219ZM38.6128 63.8906C36.5885 63.7985 35.4882 63.4615 34.757 63.1768C33.7876 62.7996 33.0959 62.3504 32.3687 61.6246C31.6414 60.8988 31.1913 60.2082 30.8156 59.2394C30.5305 58.509 30.1933 57.409 30.1013 55.3859C30.0006 53.1985 29.9805 52.5415 29.9805 47C29.9805 41.4584 30.0023 40.8032 30.1013 38.6141C30.1935 36.5909 30.5332 35.4931 30.8156 34.7605C31.193 33.7917 31.6424 33.1004 32.3687 32.3736C33.0949 31.6469 33.7859 31.197 34.757 30.8215C35.4878 30.5366 36.5885 30.1996 38.6128 30.1076C40.8015 30.007 41.4589 29.9869 47.0013 29.9869C52.5436 29.9869 53.2017 30.0087 55.3922 30.1076C57.4165 30.1998 58.515 30.5393 59.248 30.8215C60.2174 31.197 60.9091 31.6479 61.6363 32.3736C62.3636 33.0994 62.8121 33.7917 63.1894 34.7605C63.4745 35.4909 63.8117 36.5909 63.9037 38.6141C64.0044 40.8032 64.0245 41.4584 64.0245 47C64.0245 52.5415 64.0044 53.1967 63.9037 55.3859C63.8115 57.409 63.4727 58.5086 63.1894 59.2394C62.8121 60.2082 62.3626 60.8995 61.6363 61.6246C60.9101 62.3497 60.2174 62.7996 59.248 63.1768C58.5172 63.4616 57.4165 63.7986 55.3922 63.8906C53.2036 63.9912 52.5461 64.0113 47.0013 64.0113C41.4564 64.0113 40.8008 63.9912 38.6128 63.8906V63.8906ZM38.4409 26.3744C36.2305 26.475 34.7201 26.8253 33.401 27.3383C32.035 27.868 30.8785 28.5787 29.7229 29.7318C28.5673 30.8849 27.858 32.0425 27.328 33.4077C26.8147 34.7268 26.4642 36.2355 26.3635 38.4446C26.2612 40.6571 26.2378 41.3645 26.2378 46.9998C26.2378 52.6351 26.2612 53.3425 26.3635 55.555C26.4642 57.7643 26.8147 59.2728 27.328 60.5919C27.858 61.9563 28.5675 63.1152 29.7229 64.2678C30.8783 65.4204 32.035 66.1301 33.401 66.6613C34.7226 67.1743 36.2305 67.5245 38.4409 67.6251C40.6559 67.7257 41.3626 67.7508 47.0013 67.7508C52.6399 67.7508 53.3477 67.7274 55.5616 67.6251C57.7722 67.5245 59.2816 67.1743 60.6015 66.6613C61.9667 66.1301 63.124 65.4209 64.2796 64.2678C65.4352 63.1147 66.143 61.9563 66.6746 60.5919C67.1878 59.2728 67.54 57.7641 67.639 55.555C67.7396 53.3408 67.7631 52.6351 67.7631 46.9998C67.7631 41.3645 67.7396 40.6571 67.639 38.4446C67.5383 36.2353 67.1878 34.726 66.6746 33.4077C66.143 32.0433 65.4334 30.8867 64.2796 29.7318C63.1258 28.5769 61.9667 27.868 60.6032 27.3383C59.2816 26.8253 57.772 26.4734 55.5633 26.3744C53.3494 26.2738 52.6416 26.2488 47.0029 26.2488C41.3642 26.2488 40.6559 26.2722 38.4409 26.3744Z" fill="url(#paint1_radial_158_332)"></path>
  <defs>
    <radialGradient id="paint0_radial_158_332" cx="0" cy="0" r="1" gradientUnits="userSpaceOnUse" gradientTransform="translate(31.7549 67.9469) scale(54.2099 54.1774)">
      <stop offset="0.09" stop-color="#FA8F21"></stop>
      <stop offset="0.78" stop-color="#D82D7E"></stop>
    </radialGradient>
    <radialGradient id="paint1_radial_158_332" cx="0" cy="0" r="1" gradientUnits="userSpaceOnUse" gradientTransform="translate(51.422 69.8061) scale(42.7249 42.6993)">
      <stop offset="0.64" stop-color="#8C3AAA" stop-opacity="0"></stop>
      <stop offset="1" stop-color="#8C3AAA"></stop>
    </radialGradient>
  </defs>
</svg>
